<svg width="36" height="34" viewBox="0 0 36 34" fill="none" xmlns="http://www.w3.org/2000/svg">
<path d="M20.3457 28.7237C20.3457 30.0457 21.4174 31.1173 22.7393 31.1173C24.0613 31.1173 25.1329 30.0457 25.1329 28.7237C25.1329 27.4017 24.0613 26.3301 22.7393 26.3301C21.4174 26.3301 20.3457 27.4017 20.3457 28.7237Z" fill="black"/>
<path d="M20.3457 4.78717C20.3457 6.10913 21.4174 7.18079 22.7393 7.18079C24.0613 7.18079 25.1329 6.10913 25.1329 4.78717C25.1329 3.46521 24.0613 2.39355 22.7393 2.39355C21.4174 2.39355 20.3457 3.46521 20.3457 4.78717Z" fill="black"/>
<path d="M0 16.7549C0 18.0769 1.07166 19.1486 2.39362 19.1486C3.71558 19.1486 4.78723 18.0769 4.78723 16.7549C4.78723 15.433 3.71558 14.3613 2.39362 14.3613C1.07166 14.3613 0 15.433 0 16.7549Z" fill="black"/>
<path fill-rule="evenodd" clip-rule="evenodd" d="M31.1171 11.9681C28.9402 11.9746 27.0424 13.4503 26.4998 15.5585H21.3727C21.0295 14.1921 20.0971 13.0488 18.8277 12.4377C17.5583 11.8267 16.083 11.8112 14.801 12.3953L10.9987 7.64402C11.6242 6.82264 11.9645 5.81962 11.9681 4.78723C11.9681 2.14332 9.82483 0 7.18091 0C4.53699 0 2.39368 2.14332 2.39368 4.78723C2.39368 7.43115 4.53699 9.57447 7.18091 9.57447C7.85576 9.5729 8.52249 9.42723 9.1365 9.14721L12.9376 13.8985C11.6458 15.584 11.6458 17.9266 12.9376 19.6121L9.1365 24.3634C8.52249 24.0834 7.85576 23.9377 7.18091 23.9362C4.53699 23.9362 2.39368 26.0795 2.39368 28.7234C2.39368 31.3673 4.53699 33.5106 7.18091 33.5106C9.82483 33.5106 11.9681 31.3673 11.9681 28.7234C11.9646 27.691 11.6243 26.688 10.9987 25.8666L14.7998 21.1153C16.0819 21.6999 17.5575 21.6846 18.8273 21.0735C20.097 20.4625 21.0296 19.3188 21.3727 17.9521H26.4998C27.126 20.3548 29.4879 21.8777 31.9348 21.4565C34.3818 21.0353 36.0986 18.8104 35.8854 16.3366C35.6722 13.8628 33.6 11.9644 31.1171 11.9681ZM4.78729 4.78723C4.78729 3.46528 5.85895 2.39362 7.18091 2.39362C8.50287 2.39362 9.57453 3.46528 9.57453 4.78723C9.57453 6.10919 8.50287 7.18085 7.18091 7.18085C5.8595 7.17953 4.78861 6.10864 4.78729 4.78723ZM4.78729 28.7234C4.78729 30.0454 5.85895 31.117 7.18091 31.117C8.50232 31.1157 9.57321 30.0448 9.57453 28.7234C9.57453 27.4014 8.50287 26.3298 7.18091 26.3298C5.85895 26.3298 4.78729 27.4014 4.78729 28.7234ZM16.7554 19.1489C15.4334 19.1489 14.3618 18.0773 14.3618 16.7553C14.3618 15.4334 15.4334 14.3617 16.7554 14.3617C18.0773 14.3617 19.149 15.4334 19.149 16.7553C19.1477 18.0767 18.0768 19.1476 16.7554 19.1489ZM28.7235 16.7553C28.7235 18.0773 29.7951 19.1489 31.1171 19.1489C32.4385 19.1476 33.5094 18.0767 33.5107 16.7553C33.5107 15.4334 32.439 14.3617 31.1171 14.3617C29.7951 14.3617 28.7235 15.4334 28.7235 16.7553Z" fill="black" fill-opacity="0.85"/>
</svg>
