<svg width="32" height="32" viewBox="0 0 32 32" fill="none" xmlns="http://www.w3.org/2000/svg">
<path fill-rule="evenodd" clip-rule="evenodd" d="M29.1805 13.245C30.6435 13.245 31.8295 12.059 31.8295 10.596V2.64901C31.8295 1.186 30.6435 0 29.1805 0H21.2334C19.7704 0 18.5844 1.186 18.5844 2.64901V10.596C18.5844 12.059 19.7704 13.245 21.2334 13.245H23.8825V18.6755C21.2807 19.2061 19.2475 21.2394 18.7169 23.8411H13.2864V21.1921C13.2864 19.729 12.1004 18.543 10.6374 18.543H7.98841V13.1126C11.3195 12.4326 13.5946 9.3408 13.2529 5.95825C12.9112 2.5757 10.0637 0.00135167 6.66391 0.00135167C3.26414 0.00135167 0.416636 2.5757 0.0749287 5.95825C-0.266778 9.3408 2.00833 12.4326 5.33941 13.1126V18.543H2.6904C1.22739 18.543 0.0413932 19.729 0.0413932 21.1921V29.1391C0.0413932 30.6021 1.22739 31.7881 2.6904 31.7881H10.6374C12.1004 31.7881 13.2864 30.6021 13.2864 29.1391V26.4901H18.7169C19.3806 29.7375 22.3429 31.994 25.65 31.7714C28.9571 31.5488 31.5902 28.9157 31.8128 25.6086C32.0354 22.3016 29.7789 19.3393 26.5315 18.6755V13.245H29.1805ZM2.6904 6.62252C2.6904 4.42801 4.4694 2.64901 6.66391 2.64901C8.85842 2.64901 10.6374 4.42801 10.6374 6.62252C10.6374 8.81703 8.85842 10.596 6.66391 10.596C4.4694 10.596 2.6904 8.81703 2.6904 6.62252ZM2.6904 21.1921V29.1391H10.6374V21.1921H2.6904ZM29.1805 25.1656C29.1805 27.3601 27.4015 29.1391 25.207 29.1391C23.0124 29.1391 21.2334 27.3601 21.2334 25.1656C21.2334 22.9711 23.0124 21.1921 25.207 21.1921C27.4015 21.1921 29.1805 22.9711 29.1805 25.1656ZM29.1805 2.64901H21.2334V10.596H29.1805V2.64901Z" fill="black"/>
</svg>
