<svg width="34" height="35" viewBox="0 0 34 35" fill="none" xmlns="http://www.w3.org/2000/svg">
<path d="M5.86076 17.2026C5.86076 23.4665 10.9386 28.5444 17.2025 28.5444C23.4664 28.5444 28.5443 23.4665 28.5443 17.2026C28.5443 10.9387 23.4664 5.86084 17.2025 5.86084C10.9386 5.86084 5.86076 10.9387 5.86076 17.2026H5.86076Z" stroke="black" stroke-width="2"/>
<path d="M3.87134 25.1682L18.1137 17.4077L22.3299 32.8537C20.9852 33.2065 19.5716 33.3946 18.1137 33.3946C11.9881 33.3942 6.65198 30.0748 3.87134 25.1682Z" fill="white" stroke="black" stroke-width="2"/>
<path d="M30.5046 9.10132C31.9709 11.5769 32.8103 14.4511 32.8103 17.5171C32.8103 19.0235 32.6077 20.4842 32.2274 21.8738L15.5823 17.5171L30.5046 9.10132Z" fill="white" stroke="black" stroke-width="2"/>
<path d="M1 17.8283C1 8.53423 8.5528 1 17.8698 1V17.8283H1Z" fill="white" stroke="black" stroke-width="2"/>
<path d="M13.1519 17.3115C13.1519 19.6089 15.0143 21.4712 17.3116 21.4712C19.6089 21.4712 21.4713 19.6089 21.4713 17.3115C21.4713 15.0142 19.6089 13.1519 17.3116 13.1519C15.0143 13.1519 13.1519 15.0142 13.1519 17.3115H13.1519Z" fill="white" stroke="black" stroke-width="2"/>
</svg>
