<svg width="32" height="32" viewBox="0 0 32 32" fill="none" xmlns="http://www.w3.org/2000/svg">
<path d="M15.2471 3.95288H16.7447V27.9153H15.2471V3.95288Z" fill="black"/>
<path d="M3.93649 15.1689H27.899V16.6666H3.93649V15.1689Z" fill="black"/>
<path d="M6.91606 7.97551L7.97503 6.9165L24.9189 23.8603L23.8599 24.9194L6.91606 7.97551Z" fill="black"/>
<path d="M6.91606 23.8601L23.8599 6.91626L24.9189 7.97526L7.97503 24.9191L6.91606 23.8601Z" fill="black"/>
<path d="M12.9224 3.93647C12.9224 5.59073 14.2635 6.93178 15.9177 6.93178C17.572 6.93178 18.913 5.59073 18.913 3.93647C18.913 2.28221 17.572 0.941162 15.9177 0.941162C14.2635 0.941162 12.9224 2.28221 12.9224 3.93647Z" fill="white" stroke="black" stroke-width="2"/>
<path d="M12.2353 16.0001C12.2353 18.0792 13.9208 19.7648 16 19.7648C18.0792 19.7648 19.7647 18.0792 19.7647 16.0001C19.7647 13.9209 18.0792 12.2354 16 12.2354C13.9208 12.2354 12.2353 13.9209 12.2353 16.0001Z" fill="white" stroke="black" stroke-width="2"/>
<path d="M21.3944 7.44575C21.3944 9.10001 22.7355 10.4411 24.3897 10.4411C26.044 10.4411 27.3851 9.10001 27.3851 7.44575C27.3851 5.79149 26.044 4.45044 24.3897 4.45044C22.7355 4.45044 21.3944 5.79149 21.3944 7.44575Z" fill="white" stroke="black" stroke-width="2"/>
<path d="M24.9036 15.9177C24.9036 17.5719 26.2447 18.913 27.8989 18.913C29.5532 18.913 30.8943 17.5719 30.8943 15.9177C30.8943 14.2634 29.5532 12.9224 27.8989 12.9224C26.2447 12.9224 24.9036 14.2634 24.9036 15.9177Z" fill="white" stroke="black" stroke-width="2"/>
<path d="M21.3944 24.3898C21.3944 26.0441 22.7355 27.3851 24.3897 27.3851C26.044 27.3851 27.3851 26.0441 27.3851 24.3898C27.3851 22.7356 26.044 21.3945 24.3897 21.3945C22.7355 21.3945 21.3944 22.7356 21.3944 24.3898Z" fill="white" stroke="black" stroke-width="2"/>
<path d="M12.9224 27.8989C12.9224 29.5531 14.2635 30.8942 15.9177 30.8942C17.572 30.8942 18.913 29.5531 18.913 27.8989C18.913 26.2446 17.572 24.9036 15.9177 24.9036C14.2635 24.9036 12.9224 26.2446 12.9224 27.8989Z" fill="white" stroke="black" stroke-width="2"/>
<path d="M4.45038 24.3898C4.45038 26.0441 5.79142 27.3851 7.44569 27.3851C9.09995 27.3851 10.441 26.0441 10.441 24.3898C10.441 22.7356 9.09995 21.3945 7.44569 21.3945C5.79142 21.3945 4.45038 22.7356 4.45038 24.3898Z" fill="white" stroke="black" stroke-width="2"/>
<path d="M0.941177 15.9177C0.941177 17.5719 2.28222 18.913 3.93649 18.913C5.59075 18.913 6.93179 17.5719 6.93179 15.9177C6.93179 14.2634 5.59075 12.9224 3.93649 12.9224C2.28222 12.9224 0.941177 14.2634 0.941177 15.9177Z" fill="white" stroke="black" stroke-width="2"/>
<path d="M4.45038 7.44575C4.45038 9.10001 5.79142 10.4411 7.44569 10.4411C9.09995 10.4411 10.441 9.10001 10.441 7.44575C10.441 5.79149 9.09995 4.45044 7.44569 4.45044C5.79142 4.45044 4.45038 5.79149 4.45038 7.44575Z" fill="white" stroke="black" stroke-width="2"/>
</svg>
