<svg width="32" height="32" viewBox="0 0 32 32" fill="none" xmlns="http://www.w3.org/2000/svg">
<path fill-rule="evenodd" clip-rule="evenodd" d="M16 31.9999L29.6666 28.8464C30.8131 28.6117 31.6445 27.5881 31.6445 26.4036V3.20511C31.6445 2.45865 31.3204 1.76135 30.7527 1.28531C30.1908 0.8117 29.4451 0.617065 28.7234 0.755634H28.7056L15.591 3.71467L3.3414 0.78469L3.30564 0.777985C2.57705 0.63048 1.83059 0.818213 1.25621 1.29649C0.684072 1.77253 0.355539 2.47429 0.355539 3.22523V26.4014C0.352386 27.582 1.17818 28.6028 2.33345 28.8464L16 31.9999ZM29.3872 2.95034C29.4624 3.01364 29.5057 3.10688 29.5057 3.20511L29.5057 3.20287V26.4014C29.5057 26.5583 29.3956 26.6936 29.2419 26.7254L29.2241 26.7299L16 29.7806L2.79384 26.7344L2.75808 26.7254C2.6061 26.6964 2.49436 26.5578 2.49436 26.4014V3.22523L2.49433 3.22073C2.49434 3.04052 2.64045 2.89444 2.82066 2.89446L2.87206 2.8967L15.5754 5.93619L29.1302 2.87882C29.2222 2.86465 29.3158 2.8907 29.3872 2.95034ZM22.8747 15.1932C22.4076 15.1932 21.9628 15.115 21.5471 14.9675L19.5469 17.7276C20.3246 18.6372 20.7537 19.7972 20.7492 20.9973C20.7492 23.7619 18.5255 26.0125 15.7899 26.0125C13.0589 26.0125 10.8329 23.7619 10.8329 20.9973C10.8329 19.9983 11.1234 19.0686 11.6218 18.2864L10.4016 16.9141C9.82941 17.2605 9.17234 17.4438 8.50187 17.4438C6.44574 17.4438 4.76956 15.7497 4.76956 13.6668C4.76956 11.5883 6.44575 9.89199 8.50187 9.89199C10.558 9.89199 12.2342 11.5861 12.2342 13.669C12.2342 14.2568 12.1001 14.8178 11.8587 15.3162L13.1438 16.7577C14.5489 15.8521 16.3196 15.7281 17.8371 16.4292L19.786 13.7361C19.1735 12.9999 18.8389 12.0721 18.8406 11.1145C18.8406 8.86617 20.6509 7.03576 22.8746 7.03576C25.0984 7.03576 26.9064 8.86616 26.9064 11.1145C26.9064 13.3628 25.0961 15.1933 22.8746 15.1933L22.8747 15.1932ZM6.91059 13.6668C6.9081 12.7835 7.6199 12.0644 8.50303 12.0576C9.38698 12.0644 10.0991 12.7849 10.0954 13.669C10.0978 14.5526 9.38547 15.272 8.50186 15.2782C7.61772 15.272 6.90564 14.5509 6.91059 13.6668ZM15.7899 18.1456C14.2258 18.1579 12.9665 19.4332 12.9739 20.9973C12.9677 22.5606 14.2267 23.8345 15.7899 23.8468C17.3549 23.837 18.6166 22.5623 18.6104 20.9973C18.6178 19.4315 17.3558 18.1554 15.7899 18.1456ZM20.9816 11.1145C20.9767 10.0637 21.8239 9.20755 22.8746 9.2014C23.9254 9.20755 24.7725 10.0637 24.7676 11.1145C24.7738 12.1665 23.9266 13.0247 22.8746 13.0321C21.8309 13.0321 20.9816 12.1716 20.9816 11.1145Z" fill="black"/>
</svg>
