<svg width="33" height="33" viewBox="0 0 33 33" fill="none" xmlns="http://www.w3.org/2000/svg">
<path fill-rule="evenodd" clip-rule="evenodd" d="M30.9315 11.7845V21.1806C31.818 21.6238 32.4385 22.5102 32.4385 23.5739C32.4385 25.0809 31.2861 26.2332 29.7792 26.2332C29.1587 26.2332 28.5382 25.9673 28.095 25.6127L19.0534 30.3994C18.7875 31.5518 17.7238 32.4382 16.4828 32.4382C15.0645 32.4382 14.0008 31.4631 13.8235 30.1335L5.04788 25.4354C4.60466 25.9673 3.89552 26.2332 3.18638 26.2332C1.67945 26.2332 0.5271 25.0809 0.5271 23.5739C0.5271 22.3329 1.41353 21.2692 2.56588 21.0033V11.9618C1.41353 11.6958 0.5271 10.6321 0.5271 9.39112C0.5271 7.8842 1.67945 6.73184 3.18638 6.73184C3.89552 6.73184 4.60466 6.99777 5.04788 7.52963L13.8235 2.83156C14.0008 1.50192 15.1531 0.526855 16.4828 0.526855C17.7238 0.526855 18.7875 1.41328 19.0534 2.56564L28.1836 7.35234C28.6268 6.99777 29.2473 6.73184 29.8678 6.73184C31.3747 6.73184 32.5271 7.8842 32.5271 9.39112C32.5271 10.4548 31.818 11.3413 30.9315 11.7845ZM23.7515 19.585L27.9177 21.6238C28.2723 21.3579 28.6268 21.092 29.07 21.0033V11.9618C28.6268 11.8731 28.2723 11.6958 27.9177 11.3413L23.7515 13.38V19.585ZM27.1199 9.74569L22.7764 11.8731L17.3692 8.77062V5.66813C17.9897 5.4022 18.5216 4.95899 18.7875 4.42713L27.1199 8.85927V9.74569ZM11.4301 19.4964L16.7487 22.5102L22.0673 19.4964V13.4687L16.7487 10.4548L11.4301 13.4687V19.4964ZM15.5964 5.66813V8.94791L10.3664 11.9618L5.84566 9.74569V9.39112V9.12519L14.2667 4.60442C14.5326 5.13627 15.0645 5.49084 15.5964 5.66813ZM9.65729 13.646L5.04788 11.3413C4.96851 11.3942 4.89705 11.4471 4.82877 11.4976L4.82876 11.4976C4.66823 11.6165 4.5253 11.7223 4.33873 11.7845V21.1806L4.33876 21.1806C4.60468 21.3579 4.87059 21.5352 5.04788 21.7125L9.65729 19.4077V13.646ZM5.84566 23.2194L10.3664 20.9147L15.5964 23.9285V27.2083C15.0645 27.3856 14.5326 27.7402 14.2667 28.272L5.84566 23.8399V23.5739V23.2194ZM17.3692 24.1944V27.2969C17.9897 27.4742 18.5216 27.9174 18.9648 28.5379L27.2972 24.1058C27.2085 23.9285 27.2085 23.7512 27.2085 23.5739V23.2194L22.8651 21.092L17.3692 24.1944Z" fill="black"/>
</svg>
