<svg width="34" height="34" viewBox="0 0 34 34" fill="none" xmlns="http://www.w3.org/2000/svg">
<path d="M16.2 4.19995H17.7913V29.6601H16.2V4.19995Z" fill="black"/>
<path d="M4.18253 16.1169H29.6426V17.7082H4.18253V16.1169Z" fill="black"/>
<path d="M7.34833 8.47395L8.47348 7.34875L26.4764 25.3516L25.3512 26.4768L7.34833 8.47395Z" fill="black"/>
<path d="M7.34833 25.3512L25.3512 7.34839L26.4764 8.47358L8.47348 26.4764L7.34833 25.3512Z" fill="black"/>
<path d="M13.7301 4.18252C13.7301 5.94017 15.1549 7.36503 16.9126 7.36503C18.6702 7.36503 20.0951 5.94017 20.0951 4.18252C20.0951 2.42486 18.6702 1 16.9126 1C15.1549 1 13.7301 2.42486 13.7301 4.18252Z" fill="white" stroke="black" stroke-width="2"/>
<path d="M13 17C13 19.2091 14.7909 21 17 21C19.2091 21 21 19.2091 21 17C21 14.7909 19.2091 13 17 13C14.7909 13 13 14.7909 13 17Z" fill="white" stroke="black" stroke-width="2"/>
<path d="M22.7316 7.91103C22.7316 9.66869 24.1565 11.0935 25.9141 11.0935C27.6718 11.0935 29.0966 9.66869 29.0966 7.91103C29.0966 6.15338 27.6718 4.72852 25.9141 4.72852C24.1565 4.72852 22.7316 6.15338 22.7316 7.91103Z" fill="white" stroke="black" stroke-width="2"/>
<path d="M26.4601 16.9126C26.4601 18.6703 27.885 20.0951 29.6426 20.0951C31.4003 20.0951 32.8251 18.6703 32.8251 16.9126C32.8251 15.155 31.4003 13.7301 29.6426 13.7301C27.885 13.7301 26.4601 15.155 26.4601 16.9126Z" fill="white" stroke="black" stroke-width="2"/>
<path d="M22.7316 25.9141C22.7316 27.6717 24.1565 29.0966 25.9141 29.0966C27.6718 29.0966 29.0966 27.6717 29.0966 25.9141C29.0966 24.1564 27.6718 22.7316 25.9141 22.7316C24.1565 22.7316 22.7316 24.1564 22.7316 25.9141Z" fill="white" stroke="black" stroke-width="2"/>
<path d="M13.7301 29.6426C13.7301 31.4003 15.1549 32.8251 16.9126 32.8251C18.6702 32.8251 20.0951 31.4003 20.0951 29.6426C20.0951 27.8849 18.6702 26.4601 16.9126 26.4601C15.1549 26.4601 13.7301 27.8849 13.7301 29.6426Z" fill="white" stroke="black" stroke-width="2"/>
<path d="M4.72852 25.9141C4.72852 27.6717 6.15338 29.0966 7.91103 29.0966C9.66869 29.0966 11.0935 27.6717 11.0935 25.9141C11.0935 24.1564 9.66869 22.7316 7.91103 22.7316C6.15338 22.7316 4.72852 24.1564 4.72852 25.9141Z" fill="white" stroke="black" stroke-width="2"/>
<path d="M1 16.9126C1 18.6703 2.42486 20.0951 4.18252 20.0951C5.94017 20.0951 7.36503 18.6703 7.36503 16.9126C7.36503 15.155 5.94017 13.7301 4.18252 13.7301C2.42486 13.7301 1 15.155 1 16.9126Z" fill="white" stroke="black" stroke-width="2"/>
<path d="M4.72852 7.91103C4.72852 9.66869 6.15338 11.0935 7.91103 11.0935C9.66869 11.0935 11.0935 9.66869 11.0935 7.91103C11.0935 6.15338 9.66869 4.72852 7.91103 4.72852C6.15338 4.72852 4.72852 6.15338 4.72852 7.91103Z" fill="white" stroke="black" stroke-width="2"/>
</svg>
