<svg width="36" height="36" viewBox="0 0 36 36" fill="none" xmlns="http://www.w3.org/2000/svg">
<path d="M16.875 6.75H31.5V9H16.875V6.75ZM16.875 27H31.5V29.25H16.875V27ZM4.5 16.875H19.125V19.125H4.5V16.875ZM7.875 12.375C6.98499 12.375 6.11496 12.1111 5.37494 11.6166C4.63491 11.1221 4.05814 10.4193 3.71754 9.59708C3.37695 8.77481 3.28783 7.87001 3.46147 6.9971C3.6351 6.12418 4.06368 5.32236 4.69302 4.69302C5.32236 4.06368 6.12418 3.6351 6.9971 3.46147C7.87001 3.28783 8.77481 3.37695 9.59708 3.71754C10.4193 4.05814 11.1221 4.63491 11.6166 5.37494C12.1111 6.11496 12.375 6.98499 12.375 7.875C12.375 9.06848 11.9009 10.2131 11.057 11.057C10.2131 11.9009 9.06848 12.375 7.875 12.375ZM7.875 5.625C7.42999 5.625 6.99498 5.75696 6.62497 6.0042C6.25496 6.25143 5.96657 6.60283 5.79627 7.01396C5.62598 7.4251 5.58142 7.8775 5.66823 8.31396C5.75505 8.75041 5.96934 9.15132 6.28401 9.46599C6.59868 9.78066 6.99959 9.99495 7.43605 10.0818C7.87251 10.1686 8.32491 10.124 8.73604 9.95373C9.14717 9.78343 9.49858 9.49505 9.74581 9.12503C9.99304 8.75502 10.125 8.32001 10.125 7.875C10.125 7.27826 9.88795 6.70597 9.46599 6.28401C9.04403 5.86205 8.47174 5.625 7.875 5.625ZM7.875 32.625C6.98499 32.625 6.11496 32.3611 5.37494 31.8666C4.63491 31.3721 4.05814 30.6693 3.71754 29.8471C3.37695 29.0248 3.28783 28.12 3.46147 27.2471C3.6351 26.3742 4.06368 25.5724 4.69302 24.943C5.32236 24.3137 6.12418 23.8851 6.9971 23.7115C7.87001 23.5378 8.77481 23.6269 9.59708 23.9675C10.4193 24.3081 11.1221 24.8849 11.6166 25.6249C12.1111 26.365 12.375 27.235 12.375 28.125C12.375 29.3185 11.9009 30.4631 11.057 31.307C10.2131 32.1509 9.06848 32.625 7.875 32.625ZM7.875 25.875C7.42999 25.875 6.99498 26.007 6.62497 26.2542C6.25496 26.5014 5.96657 26.8528 5.79627 27.264C5.62598 27.6751 5.58142 28.1275 5.66823 28.564C5.75505 29.0004 5.96934 29.4013 6.28401 29.716C6.59868 30.0307 6.99959 30.245 7.43605 30.3318C7.87251 30.4186 8.32491 30.374 8.73604 30.2037C9.14717 30.0334 9.49858 29.745 9.74581 29.375C9.99304 29.005 10.125 28.57 10.125 28.125C10.125 27.5283 9.88795 26.956 9.46599 26.534C9.04403 26.1121 8.47174 25.875 7.875 25.875ZM28.125 22.5C27.235 22.5 26.365 22.2361 25.6249 21.7416C24.8849 21.2471 24.3081 20.5443 23.9675 19.7221C23.6269 18.8998 23.5378 17.995 23.7115 17.1221C23.8851 16.2492 24.3137 15.4474 24.943 14.818C25.5724 14.1887 26.3742 13.7601 27.2471 13.5865C28.12 13.4128 29.0248 13.5019 29.8471 13.8425C30.6693 14.1831 31.3721 14.7599 31.8666 15.4999C32.3611 16.24 32.625 17.11 32.625 18C32.625 19.1935 32.1509 20.3381 31.307 21.182C30.4631 22.0259 29.3185 22.5 28.125 22.5ZM28.125 15.75C27.68 15.75 27.245 15.882 26.875 16.1292C26.505 16.3764 26.2166 16.7278 26.0463 17.139C25.876 17.5501 25.8314 18.0025 25.9182 18.439C26.0051 18.8754 26.2193 19.2763 26.534 19.591C26.8487 19.9057 27.2496 20.12 27.686 20.2068C28.1225 20.2936 28.5749 20.249 28.986 20.0787C29.3972 19.9084 29.7486 19.62 29.9958 19.25C30.243 18.88 30.375 18.445 30.375 18C30.375 17.4033 30.1379 16.831 29.716 16.409C29.294 15.9871 28.7217 15.75 28.125 15.75Z" fill="black"/>
</svg>
