<svg width="36" height="36" viewBox="0 0 36 36" fill="none" xmlns="http://www.w3.org/2000/svg">
<path d="M32.5714 3.85714H18.8571V1.28571C18.8571 0.94472 18.7217 0.617694 18.4806 0.376576C18.2394 0.135459 17.9124 0 17.5714 0C17.2304 0 16.9034 0.135459 16.6623 0.376576C16.4212 0.617694 16.2857 0.94472 16.2857 1.28571V3.85714H3.4286C2.74662 3.85714 2.09257 4.12805 1.61033 4.61029C1.12809 5.09252 0.857178 5.74658 0.857178 6.42856V25.2857C0.857178 25.9677 1.12809 26.6217 1.61033 27.1039C2.09257 27.5862 2.74662 27.8571 3.4286 27.8571H10.4829L6.62574 34.0371C6.53618 34.1798 6.47576 34.3389 6.44796 34.5052C6.42017 34.6714 6.42555 34.8415 6.46379 35.0056C6.50204 35.1697 6.57239 35.3247 6.6708 35.4615C6.76921 35.5983 6.89372 35.7143 7.03717 35.8028C7.23848 35.9339 7.47408 36.0025 7.71431 35.9999C7.9328 36.0008 8.14782 35.9453 8.33854 35.8387C8.52926 35.732 8.6892 35.578 8.80288 35.3914L13.0886 28.5342C13.2197 28.3329 13.2883 28.0973 13.2857 27.8571H22.7143C22.7117 28.0973 22.7803 28.3329 22.9114 28.5342L27.1971 35.3914C27.3108 35.578 27.4707 35.732 27.6615 35.8387C27.8522 35.9453 28.0672 36.0008 28.2857 35.9999C28.5259 36.0025 28.7615 35.9339 28.9628 35.8028C29.1063 35.7143 29.2308 35.5983 29.3292 35.4615C29.4276 35.3247 29.498 35.1697 29.5362 35.0056C29.5745 34.8415 29.5798 34.6714 29.552 34.5052C29.5243 34.3389 29.4638 34.1798 29.3743 34.0371L25.5171 27.8571H32.5714C33.2534 27.8571 33.9074 27.5862 34.3897 27.1039C34.8719 26.6217 35.1428 25.9677 35.1428 25.2857V6.42856C35.1428 5.74658 34.8719 5.09252 34.3897 4.61029C33.9074 4.12805 33.2534 3.85714 32.5714 3.85714ZM32.5714 25.2857H3.4286V18.54L7.24288 15.6771C7.867 16.2643 8.67069 16.6243 9.52438 16.6989C10.3781 16.7736 11.232 16.5585 11.9486 16.0885L14.82 18.3857C14.6585 18.8102 14.5744 19.2601 14.5714 19.7142C14.5685 20.3114 14.7042 20.9011 14.968 21.4369C15.2317 21.9727 15.6163 22.4399 16.0913 22.8018C16.5664 23.1636 17.119 23.4102 17.7056 23.5222C18.2922 23.6341 18.8967 23.6083 19.4717 23.4468C20.0466 23.2853 20.5762 22.9925 21.0187 22.5915C21.4612 22.1905 21.8045 21.6922 22.0217 21.1359C22.2388 20.5796 22.3238 19.9804 22.27 19.3857C22.2161 18.7909 22.0249 18.2168 21.7114 17.7085L24.3257 15.4285C24.8832 15.7333 25.5075 15.8952 26.1428 15.9C26.6576 15.8982 27.167 15.7963 27.6428 15.6L32.5714 19.3885V25.2857ZM8.57145 12.8571C8.57145 12.6028 8.64685 12.3542 8.78813 12.1428C8.92941 11.9314 9.13021 11.7666 9.36514 11.6693C9.60007 11.572 9.85859 11.5465 10.108 11.5961C10.3574 11.6457 10.5865 11.7682 10.7663 11.948C10.9461 12.1278 11.0686 12.3569 11.1182 12.6063C11.1678 12.8557 11.1423 13.1142 11.045 13.3491C10.9477 13.5841 10.7829 13.7849 10.5715 13.9261C10.36 14.0674 10.1115 14.1428 9.85716 14.1428C9.51617 14.1428 9.18914 14.0074 8.94803 13.7663C8.70691 13.5251 8.57145 13.1981 8.57145 12.8571ZM17.1429 19.7142C17.1429 19.46 17.2183 19.2114 17.3595 18.9999C17.5008 18.7885 17.7016 18.6237 17.9366 18.5264C18.1715 18.4291 18.43 18.4036 18.6794 18.4532C18.9288 18.5029 19.1579 18.6253 19.3377 18.8051C19.5175 18.9849 19.64 19.214 19.6896 19.4634C19.7392 19.7128 19.7137 19.9713 19.6164 20.2063C19.5191 20.4412 19.3543 20.642 19.1429 20.7833C18.9314 20.9246 18.6829 21 18.4286 21C18.2597 21 18.0925 20.9667 17.9366 20.9021C17.7806 20.8375 17.6388 20.7428 17.5194 20.6234C17.4 20.504 17.3053 20.3623 17.2407 20.2063C17.1761 20.0503 17.1429 19.8831 17.1429 19.7142ZM24.8571 12C24.8571 11.7457 24.9325 11.4971 25.0738 11.2857C25.2151 11.0742 25.4159 10.9094 25.6508 10.8121C25.8858 10.7148 26.1443 10.6894 26.3937 10.739C26.6431 10.7886 26.8722 10.911 27.052 11.0908C27.2318 11.2707 27.3542 11.4997 27.4039 11.7491C27.4535 11.9986 27.428 12.2571 27.3307 12.492C27.2334 12.7269 27.0686 12.9277 26.8571 13.069C26.6457 13.2103 26.3971 13.2857 26.1428 13.2857C25.8019 13.2857 25.4748 13.1502 25.2337 12.9091C24.9926 12.668 24.8571 12.341 24.8571 12ZM32.5714 16.1314L29.5457 13.7828C29.84 13.2344 29.9959 12.6224 30 12C29.9999 10.9771 29.5935 9.99608 28.8701 9.27281C28.1468 8.54953 27.1658 8.14321 26.1428 8.14321C25.1199 8.14321 24.1389 8.54953 23.4156 9.27281C22.6922 9.99608 22.2858 10.9771 22.2857 12C22.2875 12.5119 22.3894 13.0186 22.5857 13.4914L19.6714 16.0628C19.2727 15.9189 18.8525 15.8436 18.4286 15.84C17.7359 15.8444 17.0574 16.037 16.4657 16.3971L13.5086 14.0314C13.6369 13.6528 13.7063 13.2568 13.7143 12.8571C13.7142 11.8342 13.3078 10.8532 12.5844 10.1299C11.8611 9.40668 10.8801 9.00035 9.85716 9.00035C8.83425 9.00035 7.85323 9.40668 7.12988 10.1299C6.40654 10.8532 6.00012 11.8342 6.00002 12.8571C6.00399 13.0239 6.02119 13.1902 6.05145 13.3543L3.4286 15.3171V6.42856H32.5714V16.1314Z" fill="black"/>
</svg>
