<svg width="33" height="33" viewBox="0 0 33 33" fill="none" xmlns="http://www.w3.org/2000/svg">
<path fill-rule="evenodd" clip-rule="evenodd" d="M8.68379 27.0995H10.6444C10.9058 27.0995 11.1673 27.2302 11.1673 27.2302C11.298 27.4916 11.4287 27.7531 11.4287 28.0145V31.2822C11.4287 31.805 10.9058 32.3279 10.383 32.3279C9.86017 32.3279 9.33734 31.9358 9.33734 31.2822V29.0601H8.55308C6.72315 29.1909 5.28535 28.7987 4.50109 27.7531C3.58613 26.5767 3.84754 25.1389 3.97825 24.7467C4.6318 22.6554 4.23967 21.7404 3.97825 21.479C3.71684 21.0869 3.194 21.0869 3.194 21.0869H2.93258C1.49478 20.9562 0.579811 20.4333 0.318393 19.5184C-0.0737352 18.342 0.84123 17.2963 0.971939 17.1656C2.96699 15.2952 2.93991 14.8523 2.81971 12.8864L2.81971 12.8864C2.8139 12.7915 2.80789 12.6931 2.80187 12.5908C2.80187 12.3022 2.77639 11.9627 2.74793 11.5835C2.71193 11.1038 2.67116 10.5606 2.67116 9.97659C2.55165 5.19599 6.58474 2.60098 7.37636 2.09163L7.37636 2.09163C7.4505 2.04392 7.49621 2.01451 7.50741 2.00332C7.63811 1.87261 17.9642 -3.8786 25.5453 5.66318L26.8524 5.00963C26.7217 4.87892 26.7217 4.61751 26.7217 4.35609C26.7217 2.91828 27.8981 1.7419 29.3359 1.7419C30.7737 1.7419 31.95 2.91828 31.95 4.35609C31.95 5.79389 30.7737 6.97027 29.3359 6.97027C28.9437 6.97027 28.5516 6.83956 28.1595 6.70885L23.4539 9.32304C23.3232 9.45375 23.0618 9.45375 22.9311 9.45375H16.3956C15.8728 9.45375 15.35 9.06162 15.35 8.40808C15.35 7.88524 15.7421 7.3624 16.3956 7.3624H22.6697L23.5847 6.83956C17.1799 -0.872287 8.94521 3.70254 8.68379 3.96396C8.68379 3.96396 4.89322 6.18602 4.89322 10.1073C4.89322 10.6032 4.93161 11.099 4.96678 11.5533C4.99651 11.9372 5.02393 12.2914 5.02393 12.5908C5.28535 15.3357 5.15464 16.3813 2.67116 18.8648C2.54045 18.8648 2.54045 18.9955 2.54045 18.9955C2.59459 18.9955 2.67116 19.018 2.76087 19.0442C2.88773 19.0814 3.04086 19.1262 3.194 19.1262C3.58613 19.1262 4.76251 19.2569 5.67747 20.3026C6.72315 21.479 6.85386 23.1782 6.20031 25.531C6.20031 25.531 5.93889 26.1845 6.33102 26.5767C6.72315 26.9688 7.50741 27.0995 8.68379 27.0995ZM29.8587 4.4868C29.8587 4.22538 29.5973 3.96396 29.3359 3.96396C29.0744 3.96396 28.9437 4.09467 28.813 4.4868C28.813 4.74821 29.0744 5.00963 29.3359 5.00963C29.5973 5.00963 29.8587 4.74821 29.8587 4.4868ZM29.728 25.1389C28.813 25.1389 27.8981 25.6617 27.5059 26.3153H26.4603L22.6697 21.479C22.4083 21.2176 22.1468 21.0869 21.7547 21.0869H12.7358C12.0822 21.0869 11.6901 21.6097 11.6901 22.1326C11.6901 22.7861 12.2129 23.1782 12.7358 23.1782H21.1012L22.1469 24.616C20.0555 25.1389 18.487 27.0995 18.487 29.3216V31.2822C18.487 31.9358 19.0098 32.3279 19.5327 32.3279C20.1862 32.3279 20.5783 31.805 20.5783 31.2822V29.3216C20.5783 27.8838 21.7547 26.7074 23.1925 26.7074C23.3232 26.7074 23.4539 26.7074 23.5847 26.5767L24.761 28.1452C25.0225 28.4066 25.2839 28.5373 25.676 28.5373H27.1138C27.5059 29.583 28.4209 30.3672 29.5973 30.3672C31.0351 30.3672 32.2115 29.1909 32.2115 27.7531C32.3422 26.3153 31.1658 25.1389 29.728 25.1389ZM29.2052 27.7531C29.2052 28.0145 29.4666 28.2759 29.728 28.2759C29.9894 28.2759 30.2508 28.0145 30.2508 27.7531C30.2508 27.4916 29.9894 27.2302 29.728 27.2302C29.4666 27.2302 29.2052 27.4916 29.2052 27.7531ZM29.0744 24.0932C30.5122 24.0932 31.6886 22.9168 31.6886 21.479C31.6886 20.0412 30.5122 18.8648 29.0744 18.8648C28.4209 18.8648 27.8981 19.1262 27.5059 19.3877L23.5847 16.9042C23.4539 16.7735 23.1925 16.7735 23.0618 16.7735H16.5263C15.8728 16.7735 15.4807 17.2963 15.4807 17.8191C15.4807 18.4727 16.0035 18.8648 16.5263 18.8648H22.8004L26.591 21.2176V21.3483C26.4603 22.9168 27.6366 24.0932 29.0744 24.0932ZM29.5973 21.479C29.5973 21.2176 29.3359 20.9562 29.0744 20.9562C28.813 20.9562 28.5516 21.2176 28.5516 21.479C28.5516 21.7404 28.813 22.0018 29.0744 22.0018C29.3359 22.0018 29.5973 21.7404 29.5973 21.479ZM26.1988 15.5971C27.6366 15.5971 28.813 14.4207 28.813 12.9829C28.813 11.5451 27.6366 10.3687 26.1988 10.3687C25.1532 10.3687 24.2382 11.0223 23.8461 11.9372H9.46805C8.8145 11.9372 8.42237 12.4601 8.42237 12.9829C8.42237 13.6364 8.94521 14.0286 9.46805 14.0286H23.8461C24.2382 14.9435 25.1532 15.5971 26.1988 15.5971ZM26.7217 13.1136C26.7217 12.8522 26.4603 12.5908 26.1988 12.5908C25.9374 12.5908 25.8067 12.7215 25.676 13.1136C25.676 13.375 25.9374 13.6364 26.1988 13.6364C26.4603 13.6364 26.7217 13.375 26.7217 13.1136Z" fill="black"/>
</svg>
