<svg width="32" height="32" viewBox="0 0 32 32" fill="none" xmlns="http://www.w3.org/2000/svg">
<path fill-rule="evenodd" clip-rule="evenodd" d="M10.2857 18.2857C9.92363 18.2802 9.56329 18.2342 9.21143 18.1486L3.05143 29.7143H32V32H2.28571C1.02335 32 0 30.9767 0 29.7143V0H2.28571V26.2857L7.2 17.0629C5.77746 15.7862 5.29936 13.7593 6.00143 11.9815C6.70351 10.2037 8.43752 9.05038 10.3485 9.09018C12.2595 9.12999 13.944 10.3545 14.5714 12.16C15.0157 13.3449 14.9325 14.6632 14.3429 15.7829L18.0229 19.0629C18.7764 18.5565 19.6636 18.286 20.5714 18.2857C20.8942 18.2848 21.2162 18.3193 21.5314 18.3886L24.4343 12.5714C22.9322 11.2813 22.4315 9.17081 23.1939 7.34341C23.9563 5.51601 25.8084 4.38716 27.782 4.54707C29.7556 4.70698 31.4019 6.11928 31.8602 8.04558C32.3184 9.97189 31.4845 11.9742 29.7943 13.0057C28.814 13.651 27.6134 13.8696 26.4686 13.6114L23.5657 19.4286C25.0329 20.6766 25.5604 22.7104 24.8847 24.5142C24.209 26.318 22.4752 27.5048 20.5491 27.4817C18.6231 27.4587 16.9181 26.2309 16.2857 24.4114C15.8415 23.2265 15.9246 21.9083 16.5143 20.7886L12.8343 17.5086C12.0808 18.0149 11.1936 18.2855 10.2857 18.2857ZM29.7143 9.14286C29.7143 7.88049 28.6909 6.85714 27.4286 6.85714C26.1662 6.85714 25.1429 7.88049 25.1429 9.14286C25.1429 10.4052 26.1662 11.4286 27.4286 11.4286C28.6909 11.4286 29.7143 10.4052 29.7143 9.14286ZM22.8571 22.8571C22.8571 24.1195 21.8338 25.1429 20.5714 25.1429C19.3091 25.1429 18.2857 24.1195 18.2857 22.8571C18.2857 21.5948 19.3091 20.5714 20.5714 20.5714C21.8338 20.5714 22.8571 21.5948 22.8571 22.8571ZM12.5714 13.7143C12.5714 12.4519 11.5481 11.4286 10.2857 11.4286C9.02335 11.4286 8 12.4519 8 13.7143C8 14.9767 9.02335 16 10.2857 16C11.5481 16 12.5714 14.9767 12.5714 13.7143Z" fill="black"/>
</svg>
