<svg width="36" height="34" viewBox="0 0 36 34" fill="none" xmlns="http://www.w3.org/2000/svg">
<path d="M20.3457 28.7235C20.3457 30.0454 21.4174 31.1171 22.7394 31.1171C24.0613 31.1171 25.133 30.0454 25.133 28.7235C25.133 27.4015 24.0613 26.3298 22.7394 26.3298C21.4174 26.3298 20.3457 27.4015 20.3457 28.7235Z" fill="black"/>
<path d="M20.3457 4.78729C20.3457 6.10925 21.4174 7.18091 22.7394 7.18091C24.0613 7.18091 25.133 6.10925 25.133 4.78729C25.133 3.46534 24.0613 2.39368 22.7394 2.39368C21.4174 2.39368 20.3457 3.46534 20.3457 4.78729Z" fill="black"/>
<path d="M0 16.7553C0 18.0773 1.07166 19.1489 2.39362 19.1489C3.71558 19.1489 4.78723 18.0773 4.78723 16.7553C4.78723 15.4334 3.71558 14.3617 2.39362 14.3617C1.07166 14.3617 0 15.4334 0 16.7553Z" fill="black"/>
<path fill-rule="evenodd" clip-rule="evenodd" d="M31.117 11.9681C28.9401 11.9746 27.0423 13.4503 26.4997 15.5585H21.3726C21.0295 14.1921 20.0971 13.0488 18.8276 12.4377C17.5582 11.8267 16.0829 11.8112 14.8009 12.3953L10.9987 7.64402C11.6241 6.82264 11.9645 5.81962 11.9681 4.78723C11.9681 2.14332 9.82477 0 7.18085 0C4.53693 0 2.39362 2.14332 2.39362 4.78723C2.39362 7.43115 4.53693 9.57447 7.18085 9.57447C7.8557 9.5729 8.52243 9.42723 9.13644 9.14721L12.9375 13.8985C11.6457 15.584 11.6457 17.9266 12.9375 19.6121L9.13644 24.3634C8.52243 24.0834 7.8557 23.9377 7.18085 23.9362C4.53693 23.9362 2.39362 26.0795 2.39362 28.7234C2.39362 31.3673 4.53693 33.5106 7.18085 33.5106C9.82477 33.5106 11.9681 31.3673 11.9681 28.7234C11.9646 27.691 11.6242 26.688 10.9987 25.8666L14.7997 21.1153C16.0819 21.6999 17.5575 21.6846 18.8272 21.0735C20.0969 20.4625 21.0295 19.3188 21.3726 17.9521H26.4997C27.1259 20.3548 29.4878 21.8777 31.9348 21.4565C34.3818 21.0353 36.0985 18.8104 35.8853 16.3366C35.6721 13.8628 33.6 11.9644 31.117 11.9681ZM4.78723 4.78723C4.78723 3.46528 5.85889 2.39362 7.18085 2.39362C8.50281 2.39362 9.57447 3.46528 9.57447 4.78723C9.57447 6.10919 8.50281 7.18085 7.18085 7.18085C5.85944 7.17953 4.78855 6.10864 4.78723 4.78723ZM4.78723 28.7234C4.78723 30.0454 5.85889 31.117 7.18085 31.117C8.50226 31.1157 9.57315 30.0448 9.57447 28.7234C9.57447 27.4014 8.50281 26.3298 7.18085 26.3298C5.85889 26.3298 4.78723 27.4014 4.78723 28.7234ZM16.7553 19.1489C15.4334 19.1489 14.3617 18.0773 14.3617 16.7553C14.3617 15.4334 15.4334 14.3617 16.7553 14.3617C18.0773 14.3617 19.1489 15.4334 19.1489 16.7553C19.1476 18.0767 18.0767 19.1476 16.7553 19.1489ZM28.7234 16.7553C28.7234 18.0773 29.7951 19.1489 31.117 19.1489C32.4384 19.1476 33.5093 18.0767 33.5106 16.7553C33.5106 15.4334 32.439 14.3617 31.117 14.3617C29.7951 14.3617 28.7234 15.4334 28.7234 16.7553Z" fill="black" fill-opacity="0.85"/>
</svg>
