<svg width="36" height="36" viewBox="0 0 36 36" fill="none" xmlns="http://www.w3.org/2000/svg">
<path d="M26.325 36H11.925C9.225 36 6.75 33.525 6.75 30.6V5.4C6.75 2.475 9.225 0 11.925 0H26.1C29.025 0 31.5 2.475 31.5 5.4V30.6C31.5 33.525 29.025 36 26.325 36ZM11.925 2.025C10.125 2.025 8.775 3.6 8.775 5.4V30.6C8.775 32.4 10.125 33.975 11.925 33.975H26.1C27.9 33.975 29.25 32.4 29.25 30.6V5.4C29.25 3.6 27.9 2.025 26.1 2.025H11.925Z" fill="black"/>
<path d="M29.475 27.4502H8.77502C8.10002 27.4502 7.65002 27.0002 7.65002 26.3252C7.65002 25.6502 8.10002 25.2002 8.77502 25.2002H29.475C30.15 25.2002 30.6 25.6502 30.6 26.3252C30.375 27.0002 29.925 27.4502 29.475 27.4502Z" fill="black"/>
<path d="M29.475 6.2998H8.77502C8.10002 6.2998 7.65002 5.8498 7.65002 5.1748C7.65002 4.4998 8.10002 4.0498 8.77502 4.0498H29.475C30.15 4.0498 30.6 4.4998 30.6 5.1748C30.6 5.8498 29.925 6.2998 29.475 6.2998Z" fill="black"/>
<path d="M17.1 30.6002C17.1 31.1373 17.3133 31.6523 17.6931 32.0321C18.0728 32.4118 18.5879 32.6252 19.125 32.6252C19.662 32.6252 20.1771 32.4118 20.5569 32.0321C20.9366 31.6523 21.15 31.1373 21.15 30.6002C21.15 30.0631 20.9366 29.5481 20.5569 29.1683C20.1771 28.7885 19.662 28.5752 19.125 28.5752C18.5879 28.5752 18.0728 28.7885 17.6931 29.1683C17.3133 29.5481 17.1 30.0631 17.1 30.6002Z" fill="black"/>
</svg>
