<svg width="35" height="32" viewBox="0 0 35 32" fill="none" xmlns="http://www.w3.org/2000/svg">
<path fill-rule="evenodd" clip-rule="evenodd" d="M25.5568 25.904C25.5568 28.3552 27.54 30.3496 29.9784 30.3496L29.9783 30.3498C32.4167 30.3498 34.3999 28.3554 34.3999 25.9042C34.3999 23.453 32.4167 21.4586 29.9783 21.4586C28.7631 21.4586 27.6615 21.9538 26.8615 22.7538L22.9951 20.3306C23.2996 19.5848 23.4559 18.7867 23.4552 17.9811L23.4552 17.9808C23.4552 14.9112 21.2264 12.3552 18.3104 11.8616V8.76958C20.303 8.28276 21.7047 6.49683 21.704 4.44558C21.704 1.9944 19.72 0 17.2824 0C14.844 0 12.8608 1.99439 12.8608 4.44559C12.8595 6.51767 14.2891 8.31619 16.308 8.7824V11.852C13.3656 12.3232 11.1096 14.892 11.1096 17.9808C11.1087 18.7704 11.2585 19.553 11.5512 20.2864L7.54159 22.7568C6.74159 21.9552 5.63839 21.4584 4.42159 21.4584C1.9832 21.4584 0 23.4528 0 25.904C0 28.3552 1.98319 30.3496 4.42159 30.3496C6.85998 30.3496 8.84318 28.3552 8.84318 25.904C8.84318 25.4 8.75918 24.9152 8.60478 24.4632L12.5896 22.008C13.757 23.3895 15.4737 24.1867 17.2824 24.1872C19.0744 24.1865 20.7769 23.4038 21.944 22.044L25.7968 24.4592C25.6416 24.912 25.5568 25.3984 25.5568 25.904ZM2.0024 25.904C2.00018 24.5649 3.08253 23.4769 4.4216 23.472L4.42168 23.472C5.76075 23.4769 6.8431 24.5649 6.84088 25.904C6.84265 27.2429 5.76057 28.3307 4.42168 28.336C3.08279 28.3308 2.00067 27.243 2.0024 25.9041V25.904ZM19.7008 4.4456C19.7034 3.10665 18.6213 2.01845 17.2824 2.0136C15.9433 2.01846 14.861 3.10653 14.8632 4.4456C14.861 5.78468 15.9433 6.87275 17.2824 6.8776C18.6211 6.87231 19.703 5.78437 19.7008 4.4456ZM13.112 17.9808C13.112 15.6688 14.9824 13.788 17.2824 13.788C19.5816 13.788 21.4528 15.6688 21.4528 17.9808C21.4528 20.2928 19.5816 22.1736 17.2824 22.1736C14.9824 22.1736 13.112 20.2928 13.112 17.9808ZM29.9784 23.472C28.6393 23.4769 27.557 24.5649 27.5592 25.904V25.9041C27.5574 27.243 28.6396 28.3308 29.9785 28.336C31.3173 28.3307 32.3994 27.2429 32.3977 25.904C32.3999 24.5649 31.3175 23.4769 29.9785 23.472L29.9784 23.472ZM29.1656 19.1695L29.1656 19.1696L29.1654 19.1695L29.1656 19.1695ZM29.1656 19.1695C29.204 18.7767 29.2232 18.3776 29.2232 17.9808V17.9806C29.2303 13.5613 26.8097 9.49529 22.9214 7.3951L23.8686 5.6215C28.408 8.07393 31.2338 12.8212 31.2254 17.9807C31.2254 18.4431 31.203 18.9087 31.1582 19.3663L29.1656 19.1695ZM5.34077 17.9808C5.34077 18.4336 5.36637 18.8904 5.41597 19.3376L3.42637 19.5632C3.3678 19.0378 3.33842 18.5095 3.33837 17.9808C3.33837 15.3752 4.05437 12.8312 5.41037 10.6248C6.72459 8.48257 8.5905 6.73299 10.8128 5.55921L11.7432 7.34161C7.79621 9.42102 5.3298 13.5196 5.34077 17.9808ZM23.744 28.0792C21.8184 29.3272 19.584 29.9864 17.2824 29.9864C15.0197 29.9886 12.8036 29.3432 10.896 28.1264L9.82316 29.8264C12.0519 31.2488 14.6312 32 17.2823 32C19.9605 32.0028 22.5819 31.2286 24.8288 29.7712L23.744 28.0792Z" fill="black"/>
</svg>
