<svg width="36" height="36" viewBox="0 0 36 36" fill="none" xmlns="http://www.w3.org/2000/svg">
<path d="M27.864 32.825H8.15583C5.57463 32.825 3.47583 30.7262 3.47583 28.145V8.43684C3.47583 5.85564 5.57463 3.75684 8.15583 3.75684H27.864C30.4452 3.75684 32.544 5.85564 32.544 8.43684V28.145C32.544 30.7262 30.4452 32.825 27.864 32.825ZM8.15583 5.91684C6.76623 5.91684 5.63583 7.04724 5.63583 8.43684V28.145C5.63583 29.5346 6.76623 30.665 8.15583 30.665H27.864C29.2536 30.665 30.384 29.5346 30.384 28.145V8.43684C30.384 7.04724 29.2536 5.91684 27.864 5.91684H8.15583Z" fill="#2C2C2C"/>
<path d="M15.3648 12.9403H8.39702C7.80122 12.9403 7.31702 12.4561 7.31702 11.8603C7.31702 11.2645 7.80122 10.7803 8.39702 10.7803H15.3648C15.9606 10.7803 16.4448 11.2645 16.4448 11.8603C16.4448 12.4561 15.9606 12.9403 15.3648 12.9403ZM27.378 21.1501H20.412C19.8162 21.1501 19.332 20.6659 19.332 20.0701C19.332 19.4743 19.8162 18.9901 20.412 18.9901H27.378C27.9738 18.9901 28.458 19.4743 28.458 20.0701C28.458 20.6659 27.9738 21.1501 27.378 21.1501Z" fill="#2C2C2C"/>
<path d="M27.3781 11.7184H24.9751V9.31535C24.9751 8.71955 24.4909 8.23535 23.8951 8.23535C23.2993 8.23535 22.8151 8.71955 22.8151 9.31535V11.7184H20.4121C19.8163 11.7184 19.3321 12.2026 19.3321 12.7984C19.3321 13.3942 19.8163 13.8784 20.4121 13.8784H22.8151V16.2814C22.8151 16.8772 23.2993 17.3614 23.8951 17.3614C24.4909 17.3614 24.9751 16.8772 24.9751 16.2814V13.8784H27.3781C27.9739 13.8784 28.4581 13.3942 28.4581 12.7984C28.4581 12.2026 27.9739 11.7184 27.3781 11.7184ZM15.2749 19.6276C14.8537 19.2064 14.1697 19.2064 13.7467 19.6276L11.6965 21.6778L9.64806 19.6276C9.22686 19.2064 8.54285 19.2064 8.11986 19.6276C7.69866 20.0488 7.69866 20.7328 8.11986 21.1558L10.1701 23.206L8.12166 25.2544C7.70046 25.6756 7.70046 26.3596 8.12166 26.7826C8.22182 26.8829 8.34078 26.9625 8.47174 27.0168C8.6027 27.0711 8.74308 27.0991 8.88486 27.0991C9.02663 27.0991 9.16701 27.0711 9.29797 27.0168C9.42893 26.9625 9.54789 26.8829 9.64806 26.7826L11.6983 24.7324L13.7485 26.7826C13.8486 26.8829 13.9676 26.9625 14.0985 27.0168C14.2295 27.0711 14.3699 27.0991 14.5117 27.0991C14.6534 27.0991 14.7938 27.0711 14.9248 27.0168C15.0557 26.9625 15.1747 26.8829 15.2749 26.7826C15.6961 26.3614 15.6961 25.6774 15.2749 25.2544L13.2247 23.2042L15.2749 21.154C15.3754 21.0539 15.4552 20.935 15.5096 20.804C15.5641 20.673 15.5921 20.5326 15.5921 20.3908C15.5921 20.2489 15.5641 20.1085 15.5096 19.9775C15.4552 19.8465 15.3754 19.7276 15.2749 19.6276Z" fill="#2C2C2C"/>
<path d="M27.378 26.6961H20.412C19.8162 26.6961 19.332 26.2119 19.332 25.6161C19.332 25.0203 19.8162 24.5361 20.412 24.5361H27.378C27.9738 24.5361 28.458 25.0203 28.458 25.6161C28.458 26.2119 27.9738 26.6961 27.378 26.6961Z" fill="#2C2C2C"/>
</svg>
