<svg width="34" height="34" viewBox="0 0 34 34" fill="none" xmlns="http://www.w3.org/2000/svg">
<path d="M1 17C1 25.8366 8.16344 33 17 33C25.8366 33 33 25.8366 33 17C33 8.16344 25.8366 1 17 1C8.16344 1 1 8.16344 1 17Z" fill="white" stroke="black" stroke-width="2"/>
<path d="M6.61404 17C6.61404 22.736 11.264 27.3859 17 27.3859C22.736 27.3859 27.386 22.736 27.386 17C27.386 11.264 22.736 6.61401 17 6.61401C11.264 6.61401 6.61404 11.264 6.61404 17Z" fill="white" stroke="black" stroke-width="2"/>
<path d="M32.4386 12.6401L17 17.0001L21.3601 1.56152C23.9167 2.28118 26.33 3.64667 28.3417 5.65838C30.3534 7.6701 31.7189 10.0834 32.4386 12.6401Z" fill="white" stroke="black" stroke-width="2"/>
</svg>
