<svg width="33" height="36" viewBox="0 0 33 36" fill="none" xmlns="http://www.w3.org/2000/svg">
<path fill-rule="evenodd" clip-rule="evenodd" d="M20.0864 17.0012L18.5256 14.7012H2.27544L0.714638 17.0012H20.0864ZM2.81853 22.5012L1.25776 20.2012H19.5433L17.9826 22.5012H2.81853ZM6.5507 28.0012L4.98994 25.7012H15.8112L14.2505 28.0012H6.5507ZM4.4469 11.5012H16.3543L14.7935 9.20117H6.0077L4.4469 11.5012Z" fill="black" style="mix-blend-mode:multiply"/>
<path d="M5.80301 18.2L16.8018 34.2002L27.8 18.2L16.8018 2.2002L5.80301 18.2Z" fill="white" stroke="black" stroke-width="2"/>
<path fill-rule="evenodd" clip-rule="evenodd" d="M32.8004 17.0012L31.2396 14.7012H14.9894L13.4286 17.0012H32.8004ZM15.5325 22.5012L13.9718 20.2012H32.2572L30.6966 22.5012H15.5325ZM19.2647 28.0012L17.7039 25.7012H28.5252L26.9645 28.0012H19.2647ZM17.1609 11.5012H29.0682L27.5075 9.20117H18.7217L17.1609 11.5012Z" fill="black" style="mix-blend-mode:multiply"/>
</svg>
