<svg width="36" height="32" viewBox="0 0 36 32" fill="none" xmlns="http://www.w3.org/2000/svg">
<path fill-rule="evenodd" clip-rule="evenodd" d="M11.25 0H2.25V2.25H11.25V0ZM30.375 14.8185V4.5C30.3738 3.25787 29.3671 2.25124 28.125 2.25H14.625V4.5H28.125V14.8185L24.0907 10.7843L22.5 12.375L29.25 19.125L36 12.375L34.4092 10.7843L30.375 14.8185ZM5.625 15.5565V25.875C5.62624 27.1171 6.63287 28.1238 7.875 28.125H21.375V25.875H7.875V15.5565L11.9093 19.5907L13.5 18L6.75 11.25L0 18L1.59075 19.5907L5.625 15.5565ZM33.75 24.75C33.7488 23.5079 32.7421 22.5012 31.5 22.5H27C25.7579 22.5012 24.7512 23.5079 24.75 24.75V29.25C24.7512 30.4921 25.7579 31.4988 27 31.5H31.5C32.7421 31.4988 33.7488 30.4921 33.75 29.25V24.75ZM31.5 29.25V24.75H26.9977L27 29.25H31.5ZM2.25 4.5H9V6.75H2.25V4.5Z" fill="url(#paint0_linear)"/>
<defs>
<linearGradient id="paint0_linear" x1="0" y1="0" x2="0" y2="31.5" gradientUnits="userSpaceOnUse">
<stop stop-opacity="0.85"/>
<stop offset="1" stop-opacity="0.85"/>
</linearGradient>
</defs>
</svg>
