<svg width="1206" height="580" viewBox="0 0 1206 580" fill="none" xmlns="http://www.w3.org/2000/svg">
<rect x="255.132" y="151.378" width="950.792" height="278.944" fill="#3A99DE"/>
<rect y="498.358" width="204.106" height="81.6422" fill="#E6F8FF"/>
<rect width="204.106" height="81.6422" fill="#E6F8FF"/>
<rect x="255.132" width="171.789" height="81.6422" fill="#E6F8FF"/>
<rect x="449.032" width="173.49" height="81.6422" fill="#E6F8FF"/>
<rect x="286" y="169" width="888" height="67" fill="#E6F8FF"/>
<rect x="286" y="256" width="888" height="67" fill="#E6F8FF"/>
<rect x="286" y="343" width="888" height="67" fill="#E6F8FF"/>
<rect x="644.633" width="171.789" height="81.6422" fill="#E6F8FF"/>
<rect x="838.534" width="173.49" height="81.6422" fill="#E6F8FF"/>
<rect x="1034.13" width="171.789" height="81.6422" fill="#E6F8FF"/>
<rect y="151" width="204" height="279" fill="#3A99DE"/>
<rect x="255.132" y="498.358" width="950.792" height="81.6422" fill="#E6F8FF"/>
<path d="M79.216 531.904V533.296H81.856V538.192H78.976V539.632H81.904C81.2 540.32 80.16 540.896 78.784 541.376L79.632 542.784C80.576 542.32 81.392 541.808 82.096 541.232V542.512H85.184V543.616H79.776V545.152H92.112V543.616H86.816V542.512H89.872V541.216C90.592 541.824 91.488 542.352 92.56 542.816L93.248 541.376C91.872 540.944 90.816 540.368 90.08 539.632H93.008V538.192H90.128V533.296H92.768V531.904H90.128V530.848H88.496V531.904H83.488V530.848H81.856V531.904H79.216ZM82.304 541.04C82.8 540.592 83.216 540.128 83.568 539.632H88.416C88.736 540.112 89.152 540.592 89.664 541.04H86.816V539.984H85.184V541.04H82.304ZM83.488 538.192V537.44H88.496V538.192H83.488ZM83.488 536.16V535.392H88.496V536.16H83.488ZM83.488 534.112V533.296H88.496V534.112H83.488ZM96.56 533.168C96.192 535.248 95.488 537.136 94.432 538.816L95.312 540.256C95.584 539.856 95.84 539.44 96.096 539.008V545.296H97.536V544.288H98.752V545.152H100.16V536.336H97.312C97.648 535.344 97.92 534.288 98.112 533.168H100.416V531.568H94.896V533.168H96.56ZM97.536 542.88V537.776H98.752V542.88H97.536ZM107.152 536.24H105.712V530.96H104.16V536.24H102.752V532.224H101.216V537.744H104.16V543.28H102.528V538.864H100.992V545.696H102.528V544.784H107.376V545.696H108.912V538.864H107.376V543.28H105.712V537.744H108.688V532.224H107.152V536.24ZM115.12 536.848V538.288H123.936V536.848H115.12ZM114 539.44V540.944H117.184C116.192 542.448 115.376 543.392 114.768 543.76C114.688 543.808 114.576 543.856 114.432 543.904L114.8 545.296C117.744 545.104 120.464 544.832 122.96 544.496C123.232 544.88 123.488 545.264 123.728 545.648L125.056 544.704C124.384 543.712 123.408 542.544 122.144 541.2L120.928 541.952C121.28 542.368 121.632 542.784 121.968 543.2C120.24 543.456 118.496 543.664 116.768 543.808C117.408 543.152 118.144 542.192 118.96 540.944H124.976V539.44H114ZM122.672 532.88V534.256H113.84V532.88H122.672ZM113.84 535.76H124.32V531.36H112.192V536.864C112.176 539.968 111.664 542.512 110.656 544.48L111.888 545.584C113.168 543.152 113.824 540.24 113.84 536.864V535.76Z" fill="#095CAB"/>
<path d="M86.512 36.632L85.328 37.208C85.616 37.672 85.904 38.184 86.16 38.76H83.968V40.344H93.04V38.76H90.784C91.104 38.2 91.392 37.592 91.648 36.92L90.848 36.632H92.752V35.128H89.28C89.12 34.616 88.976 34.136 88.816 33.72L87.088 34.008C87.28 34.36 87.44 34.728 87.6 35.128H84.352V36.632H86.512ZM87.744 38.76C87.424 37.992 87.088 37.288 86.72 36.632H89.984C89.712 37.368 89.392 38.088 89.024 38.76H87.744ZM80.624 48.52C81.712 48.52 82.272 47.976 82.272 46.888V42.472C82.64 42.296 83.008 42.12 83.392 41.928V40.232C83.024 40.424 82.656 40.616 82.272 40.808V38.36H83.424V36.744H82.272V33.912H80.576V36.744H78.8V38.36H80.576V41.512C79.888 41.768 79.184 41.96 78.464 42.12L78.896 43.8C79.456 43.608 80.016 43.416 80.576 43.208V46.456C80.576 46.808 80.4 47 80.048 47C79.664 47 79.264 46.968 78.848 46.904L79.216 48.52H80.624ZM86.864 40.52C86.736 40.888 86.576 41.272 86.384 41.688H83.76V43.288H85.584C85.264 43.832 84.928 44.408 84.544 45C85.568 45.4 86.512 45.8 87.408 46.184C86.464 46.616 85.2 46.968 83.632 47.256L84.272 48.76C86.496 48.312 88.144 47.736 89.216 47C90.464 47.576 91.488 48.136 92.32 48.648L93.232 47.32C92.32 46.808 91.376 46.344 90.4 45.912C91.008 45.176 91.44 44.312 91.68 43.288H93.312V41.688H88.08C88.208 41.368 88.352 41.048 88.48 40.712L86.864 40.52ZM90.112 43.288C89.856 44.056 89.44 44.696 88.88 45.24C88.128 44.92 87.36 44.616 86.592 44.344C86.816 44.008 87.04 43.656 87.264 43.288H90.112ZM101.056 37.736C100 41.768 97.808 44.856 94.496 47.032L95.52 48.472C98.72 46.392 100.848 43.448 101.936 39.656L101.984 39.8C103.696 44.088 105.792 46.984 108.272 48.456L109.312 47.128C106.912 45.592 104.96 42.968 103.44 39.256C102.384 36.584 101.2 34.776 99.888 33.848L98.496 34.744C99.488 35.448 100.336 36.44 101.056 37.736ZM115.12 39.848V41.288H123.936V39.848H115.12ZM114 42.44V43.944H117.184C116.192 45.448 115.376 46.392 114.768 46.76C114.688 46.808 114.576 46.856 114.432 46.904L114.8 48.296C117.744 48.104 120.464 47.832 122.96 47.496C123.232 47.88 123.488 48.264 123.728 48.648L125.056 47.704C124.384 46.712 123.408 45.544 122.144 44.2L120.928 44.952C121.28 45.368 121.632 45.784 121.968 46.2C120.24 46.456 118.496 46.664 116.768 46.808C117.408 46.152 118.144 45.192 118.96 43.944H124.976V42.44H114ZM122.672 35.88V37.256H113.84V35.88H122.672ZM113.84 38.76H124.32V34.36H112.192V39.864C112.176 42.968 111.664 45.512 110.656 47.48L111.888 48.584C113.168 46.152 113.824 43.24 113.84 39.864V38.76Z" fill="#095CAB"/>
<path d="M321.736 48.536C323 48.536 323.64 47.896 323.64 46.632V34.52H316.056V36.056H322.008V46.168C322.008 46.728 321.8 47.016 321.4 47.016L320.008 46.968L320.456 48.536H321.736ZM310.328 36.52V48.68H311.96V36.52H310.328ZM313.16 33.688L311.64 34.376C312.344 35.224 313 36.2 313.592 37.32L315.096 36.536C314.536 35.496 313.896 34.552 313.16 33.688ZM337.432 37.288V39.832H328.888V37.288H337.432ZM328.872 41.464H339.128V35.656H334.056C333.8 34.936 333.56 34.296 333.304 33.72L331.512 34.008C331.816 34.52 332.088 35.064 332.344 35.656H327.24V40.968C327.224 43.688 326.616 45.912 325.432 47.624L326.68 48.76C328.056 46.712 328.776 44.28 328.872 41.464ZM348.312 44.952L349.416 43.848C348.84 42.952 348.28 42.136 347.736 41.4C348.104 40.088 348.408 38.648 348.648 37.048L347.112 36.776C346.968 37.832 346.776 38.856 346.552 39.816C346.008 39.112 345.496 38.504 345.016 37.992L344.072 38.904V35.976H353.928V44.488C353.352 43.528 352.792 42.632 352.248 41.816C352.696 40.408 353.064 38.824 353.336 37.096L351.768 36.824C351.592 37.992 351.368 39.096 351.096 40.136C350.552 39.368 350.04 38.728 349.576 38.184L348.552 39.176C349.24 40.072 349.912 40.984 350.552 41.928C350.008 43.432 349.336 44.744 348.536 45.896L349.592 47.208C350.36 46.184 351.032 44.984 351.608 43.576C352.056 44.28 352.472 45 352.888 45.736L353.928 44.696V46.504C353.928 46.856 353.736 47.032 353.368 47.032L351.896 46.952L352.312 48.568H353.912C355.016 48.568 355.576 48.008 355.576 46.888V34.376H342.424V48.68H344.072V39.08C344.744 39.896 345.416 40.744 346.056 41.608C345.576 43.08 344.968 44.392 344.232 45.512L345.288 46.824C346.008 45.8 346.632 44.584 347.16 43.176C347.544 43.752 347.928 44.344 348.312 44.952ZM366.712 33.848V40.744H364.408V48.584H365.992V47.624H370.024V48.568H371.624V40.744H368.408V38.104H372.232V36.472H368.408V33.848H366.712ZM365.992 46.072V42.2H370.024V46.072H365.992ZM357.832 36.344V37.944H364.264V36.344H361.8C361.624 35.448 361.448 34.664 361.272 33.96L359.576 34.232C359.8 34.888 359.992 35.592 360.184 36.344H357.832ZM359.592 38.568L358.152 39.048C358.568 41.016 358.92 43.064 359.208 45.192L360.584 44.856C360.296 42.504 359.96 40.408 359.592 38.568ZM363.928 44.792C363.512 44.904 363.08 45.016 362.632 45.144C363.096 43.192 363.448 41.064 363.688 38.76L362.072 38.536C361.864 40.984 361.544 43.304 361.096 45.496C359.992 45.72 358.872 45.912 357.736 46.04L358.136 47.64C360.184 47.304 362.12 46.904 363.928 46.424V44.792Z" fill="#095CAB"/>
<path d="M669.72 198.736H671.672C671.608 200.544 671.336 202.16 670.856 203.568C670.328 202.368 669.896 200.976 669.544 199.392C669.608 199.168 669.656 198.96 669.72 198.736ZM670.088 205.28C669.4 206.512 668.472 207.504 667.32 208.272L668.184 209.68C669.272 208.896 670.2 207.936 670.952 206.816C671.704 208 672.584 208.96 673.576 209.696L674.504 208.336C673.448 207.616 672.536 206.608 671.768 205.328C672.616 203.504 673.08 201.312 673.176 198.736H674.056V197.12H670.056C670.168 196.496 670.264 195.84 670.36 195.136L668.728 194.848C668.424 197.792 667.832 200.144 666.952 201.904L667.992 203.2C668.248 202.752 668.504 202.256 668.744 201.728C669.128 203.04 669.576 204.224 670.088 205.28ZM662.52 202.272C662.424 202.56 662.312 202.848 662.2 203.168H659.976V204.592H661.56C661.272 205.184 660.936 205.808 660.552 206.448C661.256 206.72 661.944 206.992 662.584 207.264C661.736 207.648 660.744 207.984 659.592 208.24L660.36 209.632C661.944 209.216 663.256 208.688 664.312 208.016C665.176 208.416 665.912 208.8 666.52 209.168L667.416 207.856C666.824 207.536 666.216 207.248 665.592 206.976C666.296 206.272 666.776 205.44 667.048 204.512V203.168H663.832C663.912 202.944 663.992 202.704 664.088 202.464L662.52 202.272ZM664.088 206.352C663.576 206.144 663.064 205.952 662.552 205.792C662.776 205.408 663 205.008 663.208 204.592H665.576C665.24 205.248 664.744 205.84 664.088 206.352ZM661.544 195.088L660.248 195.504C660.6 196.096 660.936 196.768 661.256 197.536L662.44 197.008C662.184 196.32 661.88 195.68 661.544 195.088ZM666.04 195.072C665.752 195.712 665.336 196.352 664.824 197.008L665.992 197.6C666.488 196.96 666.888 196.304 667.208 195.632L666.04 195.072ZM660.008 197.776V199.232H661.912C661.432 199.936 660.664 200.576 659.624 201.168L660.456 202.512C661.608 201.68 662.44 200.736 662.984 199.648V202.16H664.52V200.48C664.968 200.784 665.528 201.2 666.2 201.728L667.064 200.416C666.2 199.984 665.352 199.6 664.52 199.264V199.232H667.24V197.776H664.52V194.88H662.984V197.776H660.008ZM677.64 209.52C678.696 209.52 679.224 208.96 679.224 207.872V203.536C679.64 203.328 680.072 203.12 680.52 202.896V201.264C680.104 201.488 679.672 201.696 679.224 201.904V199.36H680.584V197.744H679.224V194.912H677.592V197.744H675.864V199.36H677.592V202.56C676.92 202.784 676.232 202.976 675.544 203.136L675.976 204.784C676.52 204.608 677.048 204.416 677.592 204.224V207.456C677.592 207.856 677.416 208.064 677.08 208.064C676.712 208.064 676.328 208.016 675.928 207.952L676.28 209.52H677.64ZM682.696 202.624H685.416V204.16H682.904V209.664H684.44V209.008H688.04V209.664H689.576V204.16H687.048V202.624H690.28V201.104H687.048V199.6H689.928V195.36H681.16V200.672C681.144 203.872 680.616 206.496 679.576 208.528L680.888 209.696C681.896 207.648 682.504 205.296 682.696 202.624ZM685.416 199.6V201.104H682.76C682.76 200.96 682.776 200.816 682.776 200.672V199.6H685.416ZM684.44 207.536V205.632H688.04V207.536H684.44ZM688.296 196.88V198.128H682.776V196.88H688.296ZM695.496 197.024V198.24C695.448 202.944 694.152 206.368 691.608 208.512L692.904 209.648C694.92 207.904 696.232 205.424 696.824 202.224C697.496 203.632 698.408 204.896 699.592 206.048C698.344 206.912 696.792 207.632 694.968 208.24L695.944 209.792C697.928 209.152 699.608 208.304 700.984 207.248C702.136 208.144 703.512 208.96 705.112 209.696L706.232 208.208C704.76 207.584 703.448 206.88 702.296 206.08C703.72 204.608 704.664 202.832 705.128 200.72V199.744H701.96C702.248 198.816 702.552 197.728 702.84 196.48V195.392H692.92V197.024H695.496ZM700.904 205.008C698.984 203.344 697.736 201.408 697.16 199.168C697.176 198.864 697.192 198.56 697.192 198.24V197.024H701C700.6 198.88 700.232 200.288 699.88 201.264H703.352C702.888 202.672 702.072 203.92 700.904 205.008ZM712.424 194.96V207.488H707.848V209.12H722.152V207.488H717.544V194.96H715.864V207.488H714.104V194.96H712.424ZM720.376 197.984C719.704 200.832 718.936 203.2 718.04 205.056L719.544 205.584C720.472 203.536 721.24 201.136 721.848 198.4L720.376 197.984ZM709.56 197.936L708.136 198.416C708.968 200.736 709.64 203.136 710.184 205.632L711.704 205.264C711.08 202.512 710.36 200.064 709.56 197.936ZM728.216 194.784C727.576 196.32 726.328 197.616 724.472 198.672L725.48 200C726.088 199.616 726.664 199.216 727.192 198.784C727.8 199.28 728.456 199.744 729.16 200.176C727.528 200.752 725.672 201.184 723.592 201.44L724.36 203.008C726.888 202.624 729.096 202 731 201.152C732.984 202.08 735.208 202.672 737.688 202.96L738.44 201.408C736.392 201.216 734.52 200.816 732.84 200.208C734.152 199.44 735.272 198.512 736.216 197.424V196.08H729.416C729.592 195.76 729.752 195.408 729.912 195.04L728.216 194.784ZM730.984 199.408C730.024 198.928 729.128 198.352 728.296 197.68L728.328 197.648H733.736C732.92 198.32 732.008 198.896 730.984 199.408ZM729.768 202.064C729.752 202.608 729.704 203.12 729.608 203.616H724.712V205.12H729.096C729 205.28 728.904 205.456 728.792 205.632C728.008 206.704 726.312 207.616 723.72 208.368L724.824 209.728C727.8 208.768 729.672 207.584 730.44 206.16C730.632 205.84 730.792 205.488 730.92 205.12H735.112C735.08 206.448 734.952 207.264 734.744 207.584C734.552 207.888 734.088 208.048 733.336 208.064C732.792 208.048 732.104 208.016 731.256 207.968L731.672 209.472C732.472 209.536 733.144 209.568 733.704 209.568C734.824 209.568 735.608 209.28 736.056 208.72C736.504 208.16 736.744 206.464 736.776 203.616H731.304C731.368 203.136 731.416 202.608 731.416 202.064H729.768ZM742.504 207.44V209.072H753.944V207.44H750.888C751.784 205.184 752.536 202.64 753.144 199.792L751.48 199.328C750.792 202.528 749.992 205.232 749.08 207.44H742.504ZM744.584 200.112L743.144 200.592C743.784 202.432 744.296 204.352 744.712 206.352L746.296 205.936C745.784 203.744 745.224 201.808 744.584 200.112ZM747.64 198.944L746.2 199.424C746.744 201.328 747.176 203.312 747.528 205.36L749.112 204.96C748.68 202.704 748.184 200.704 747.64 198.944ZM747.752 194.752L745.88 195.072C746.136 195.44 746.376 195.84 746.6 196.272H740.824V201.152C740.792 204.256 740.376 206.688 739.576 208.432L741 209.696C741.96 207.552 742.472 204.704 742.52 201.152V197.888H754.184V196.272H748.456C748.232 195.712 747.992 195.2 747.752 194.752ZM758.696 200.768H762.216V203.072H758.696V200.768ZM758.616 204.608H762.216V209.12H763.912V204.608H767.72V206.832C767.72 207.44 767.464 207.76 766.984 207.76C766.44 207.76 765.864 207.728 765.224 207.664L765.672 209.296H767.512C768.776 209.296 769.416 208.672 769.416 207.44V195.36H757.016V203.28C756.984 205.36 756.504 207.072 755.56 208.416L756.84 209.568C757.816 208.256 758.408 206.592 758.616 204.608ZM767.72 203.072H763.912V200.768H767.72V203.072ZM767.72 199.232H763.912V196.992H767.72V199.232ZM762.216 196.992V199.232H758.696V196.992H762.216ZM776.12 200.848V202.288H784.936V200.848H776.12ZM775 203.44V204.944H778.184C777.192 206.448 776.376 207.392 775.768 207.76C775.688 207.808 775.576 207.856 775.432 207.904L775.8 209.296C778.744 209.104 781.464 208.832 783.96 208.496C784.232 208.88 784.488 209.264 784.728 209.648L786.056 208.704C785.384 207.712 784.408 206.544 783.144 205.2L781.928 205.952C782.28 206.368 782.632 206.784 782.968 207.2C781.24 207.456 779.496 207.664 777.768 207.808C778.408 207.152 779.144 206.192 779.96 204.944H785.976V203.44H775ZM783.672 196.88V198.256H774.84V196.88H783.672ZM774.84 199.76H785.32V195.36H773.192V200.864C773.176 203.968 772.664 206.512 771.656 208.48L772.888 209.584C774.168 207.152 774.824 204.24 774.84 200.864V199.76Z" fill="#095CAB"/>
<path d="M603.912 286.88V288.512H609.688C608.824 292.176 606.776 294.8 603.544 296.368L604.616 297.776C607.816 296.096 609.96 293.472 611.048 289.904C612.264 293.2 614.392 295.776 617.4 297.632L618.456 296.256C615.336 294.432 613.208 291.856 612.056 288.512H618.088V286.88H611.672C611.784 285.952 611.848 284.96 611.848 283.92V282.864H610.152V284.304C610.136 285.2 610.072 286.048 609.976 286.88H603.912ZM629.72 286.736H631.672C631.608 288.544 631.336 290.16 630.856 291.568C630.328 290.368 629.896 288.976 629.544 287.392C629.608 287.168 629.656 286.96 629.72 286.736ZM630.088 293.28C629.4 294.512 628.472 295.504 627.32 296.272L628.184 297.68C629.272 296.896 630.2 295.936 630.952 294.816C631.704 296 632.584 296.96 633.576 297.696L634.504 296.336C633.448 295.616 632.536 294.608 631.768 293.328C632.616 291.504 633.08 289.312 633.176 286.736H634.056V285.12H630.056C630.168 284.496 630.264 283.84 630.36 283.136L628.728 282.848C628.424 285.792 627.832 288.144 626.952 289.904L627.992 291.2C628.248 290.752 628.504 290.256 628.744 289.728C629.128 291.04 629.576 292.224 630.088 293.28ZM622.52 290.272C622.424 290.56 622.312 290.848 622.2 291.168H619.976V292.592H621.56C621.272 293.184 620.936 293.808 620.552 294.448C621.256 294.72 621.944 294.992 622.584 295.264C621.736 295.648 620.744 295.984 619.592 296.24L620.36 297.632C621.944 297.216 623.256 296.688 624.312 296.016C625.176 296.416 625.912 296.8 626.52 297.168L627.416 295.856C626.824 295.536 626.216 295.248 625.592 294.976C626.296 294.272 626.776 293.44 627.048 292.512V291.168H623.832C623.912 290.944 623.992 290.704 624.088 290.464L622.52 290.272ZM624.088 294.352C623.576 294.144 623.064 293.952 622.552 293.792C622.776 293.408 623 293.008 623.208 292.592H625.576C625.24 293.248 624.744 293.84 624.088 294.352ZM621.544 283.088L620.248 283.504C620.6 284.096 620.936 284.768 621.256 285.536L622.44 285.008C622.184 284.32 621.88 283.68 621.544 283.088ZM626.04 283.072C625.752 283.712 625.336 284.352 624.824 285.008L625.992 285.6C626.488 284.96 626.888 284.304 627.208 283.632L626.04 283.072ZM620.008 285.776V287.232H621.912C621.432 287.936 620.664 288.576 619.624 289.168L620.456 290.512C621.608 289.68 622.44 288.736 622.984 287.648V290.16H624.52V288.48C624.968 288.784 625.528 289.2 626.2 289.728L627.064 288.416C626.2 287.984 625.352 287.6 624.52 287.264V287.232H627.24V285.776H624.52V282.88H622.984V285.776H620.008ZM637.64 297.52C638.696 297.52 639.224 296.96 639.224 295.872V291.536C639.64 291.328 640.072 291.12 640.52 290.896V289.264C640.104 289.488 639.672 289.696 639.224 289.904V287.36H640.584V285.744H639.224V282.912H637.592V285.744H635.864V287.36H637.592V290.56C636.92 290.784 636.232 290.976 635.544 291.136L635.976 292.784C636.52 292.608 637.048 292.416 637.592 292.224V295.456C637.592 295.856 637.416 296.064 637.08 296.064C636.712 296.064 636.328 296.016 635.928 295.952L636.28 297.52H637.64ZM642.696 290.624H645.416V292.16H642.904V297.664H644.44V297.008H648.04V297.664H649.576V292.16H647.048V290.624H650.28V289.104H647.048V287.6H649.928V283.36H641.16V288.672C641.144 291.872 640.616 294.496 639.576 296.528L640.888 297.696C641.896 295.648 642.504 293.296 642.696 290.624ZM645.416 287.6V289.104H642.76C642.76 288.96 642.776 288.816 642.776 288.672V287.6H645.416ZM644.44 295.536V293.632H648.04V295.536H644.44ZM648.296 284.88V286.128H642.776V284.88H648.296ZM658.136 282.784V285.52H652.472V293.328H654.152V292.448H658.136V297.792H659.864V292.448H663.864V293.328H665.544V285.52H659.864V282.784H658.136ZM654.152 290.816V287.152H658.136V290.816H654.152ZM659.864 290.816V287.152H663.864V290.816H659.864ZM680.52 290.832H669.48V297.696H671.176V297.088H678.824V297.696H680.52V290.832ZM671.176 295.488V292.432H678.824V295.488H671.176ZM668.472 289.408C672.552 289.264 676.264 289.04 679.592 288.736C679.96 289.344 680.328 289.968 680.68 290.624L682.312 289.824C681.16 287.888 679.96 286.128 678.68 284.528L677.16 285.248C677.656 285.872 678.152 286.544 678.632 287.248C676.168 287.472 673.64 287.648 671.048 287.776C672.36 286.56 673.624 285.088 674.856 283.392L673.128 282.784C670.952 285.968 669.288 287.648 668.168 287.824L668.472 289.408ZM686.152 292.32H689.288V293.36H686.152V292.32ZM689.288 290.944H686.152V289.84H689.288V290.944ZM686.152 294.736H689.288V295.472C689.288 295.888 689.096 296.112 688.744 296.112L687.624 296.032L688.04 297.584H689.272C690.36 297.584 690.904 296.992 690.904 295.824V288.4H684.536V297.696H686.152V294.736ZM696.312 290C696.904 290 697.352 289.872 697.64 289.632C697.928 289.376 698.136 288.56 698.264 287.216L696.712 286.704C696.68 287.568 696.6 288.08 696.488 288.256C696.376 288.416 696.216 288.496 695.992 288.496H694.168C693.784 288.496 693.608 288.224 693.608 287.712V286.256C695.288 286 696.776 285.728 698.088 285.44L697.544 283.968C696.52 284.24 695.208 284.496 693.608 284.752V282.928H691.96V288.048C691.96 289.344 692.536 290 693.704 290H696.312ZM693.608 293.712C695.208 293.552 696.696 293.296 698.088 292.928L697.544 291.44C696.392 291.792 695.08 292.048 693.608 292.208V290.528H691.96V295.904C691.96 296.912 692.536 297.424 693.688 297.424H696.312C696.904 297.424 697.336 297.296 697.624 297.056C697.912 296.8 698.136 296 698.264 294.64L696.744 294.16C696.696 295.024 696.616 295.536 696.488 295.712C696.392 295.872 696.216 295.952 695.992 295.952H694.152C693.784 295.952 693.608 295.808 693.608 295.536V293.712ZM689.768 283.968L688.488 284.784C688.776 285.216 689.064 285.632 689.32 286.048C688.136 286.176 687.016 286.288 685.96 286.352C686.776 285.568 687.496 284.56 688.136 283.312L686.536 282.832C686.056 283.824 685.352 284.896 684.392 286.016C684.184 286.208 683.928 286.336 683.64 286.432L684.088 287.824C686.376 287.696 688.36 287.488 690.024 287.232C690.2 287.568 690.376 287.904 690.536 288.224L691.912 287.248C691.4 286.32 690.696 285.232 689.768 283.968ZM705.416 282.896V284.64C705.4 285.088 705.384 285.52 705.352 285.952H700.792V287.584H705.208C705.016 289.248 704.68 290.704 704.2 291.92C703.464 293.664 702.04 295.104 699.928 296.256L700.824 297.68C702.968 296.624 704.52 295.104 705.48 293.136C706.168 291.648 706.648 289.792 706.904 287.584H711.432C711.352 291.088 711.176 293.376 710.92 294.448C710.664 295.472 710.136 296 709.32 296C708.712 296 708.088 295.968 707.416 295.936L707.864 297.552H710.136C710.984 297.488 711.592 297.136 711.976 296.48C712.36 295.776 712.648 294.56 712.808 292.832C712.968 291.088 713.064 288.8 713.128 285.952H707.048C707.08 285.536 707.096 285.088 707.112 284.64V282.896H705.416ZM728.2 282.768C727.432 283.808 726.856 284.896 726.44 286.048C725.944 287.392 725.704 288.784 725.704 290.256C725.704 291.696 725.944 293.104 726.44 294.448C726.856 295.568 727.432 296.656 728.2 297.712H729.72C729.048 296.592 728.536 295.488 728.184 294.4C727.704 293.008 727.48 291.616 727.48 290.24C727.48 288.848 727.704 287.456 728.184 286.08C728.536 284.976 729.048 283.872 729.72 282.768H728.2ZM732.216 283.904V285.296H734.856V290.192H731.976V291.632H734.904C734.2 292.32 733.16 292.896 731.784 293.376L732.632 294.784C733.576 294.32 734.392 293.808 735.096 293.232V294.512H738.184V295.616H732.776V297.152H745.112V295.616H739.816V294.512H742.872V293.216C743.592 293.824 744.488 294.352 745.56 294.816L746.248 293.376C744.872 292.944 743.816 292.368 743.08 291.632H746.008V290.192H743.128V285.296H745.768V283.904H743.128V282.848H741.496V283.904H736.488V282.848H734.856V283.904H732.216ZM735.304 293.04C735.8 292.592 736.216 292.128 736.568 291.632H741.416C741.736 292.112 742.152 292.592 742.664 293.04H739.816V291.984H738.184V293.04H735.304ZM736.488 290.192V289.44H741.496V290.192H736.488ZM736.488 288.16V287.392H741.496V288.16H736.488ZM736.488 286.112V285.296H741.496V286.112H736.488ZM748.856 283.36V284.992H754.296V288.704H747.864V290.368H754.296V295.312C754.296 295.744 754.056 295.968 753.576 295.968C752.84 295.968 752.056 295.936 751.24 295.872L751.592 297.488H754.152C755.368 297.488 755.976 296.896 755.976 295.744V290.368H762.136V288.704H755.976V284.992H761.032V283.36H748.856ZM764.12 284.576V296H765.992V290.944H771.784V296H773.656V284.576H771.784V289.344H765.992V284.576H764.12ZM779.501 287.504C778.445 287.504 777.613 287.68 777.005 288.064C776.285 288.48 775.837 289.152 775.661 290.064L777.469 290.208C777.565 289.776 777.805 289.456 778.157 289.248C778.461 289.056 778.861 288.976 779.373 288.976C780.557 288.976 781.149 289.504 781.149 290.592V290.912L779.341 290.96C778.125 290.992 777.181 291.248 776.509 291.728C775.773 292.224 775.421 292.944 775.421 293.872C775.421 294.56 775.677 295.12 776.189 295.568C776.685 296 777.357 296.224 778.221 296.224C778.941 296.224 779.565 296.096 780.093 295.856C780.557 295.632 780.957 295.328 781.277 294.912V296H782.973V290.72C782.973 289.712 782.717 288.944 782.205 288.416C781.629 287.808 780.717 287.504 779.501 287.504ZM781.149 292.224V292.64C781.149 293.28 780.893 293.808 780.413 294.224C779.933 294.624 779.341 294.832 778.637 294.832C778.237 294.832 777.917 294.72 777.661 294.528C777.405 294.336 777.293 294.096 777.293 293.808C777.293 292.816 778.013 292.304 779.469 292.272L781.149 292.224ZM790.786 284.352V288.864C790.098 287.952 789.282 287.504 788.322 287.504C787.138 287.504 786.194 287.936 785.522 288.8C784.882 289.6 784.578 290.608 784.578 291.824C784.578 293.088 784.898 294.128 785.538 294.928C786.226 295.792 787.186 296.224 788.418 296.224C789.506 296.224 790.338 295.856 790.914 295.12V296H792.61V284.352H790.786ZM788.754 288.976C789.33 288.976 789.826 289.216 790.21 289.696C790.626 290.208 790.85 290.912 790.85 291.792V291.92C790.85 292.72 790.674 293.392 790.338 293.904C789.954 294.464 789.394 294.752 788.69 294.752C787.874 294.752 787.282 294.464 786.914 293.888C786.594 293.408 786.45 292.72 786.45 291.824C786.45 290.928 786.61 290.256 786.946 289.792C787.33 289.248 787.922 288.976 788.754 288.976ZM798.363 287.504C797.099 287.504 796.091 287.904 795.339 288.736C794.571 289.552 794.203 290.592 794.203 291.872C794.203 293.136 794.571 294.176 795.323 294.976C796.091 295.808 797.099 296.224 798.363 296.224C799.611 296.224 800.635 295.808 801.403 294.976C802.139 294.176 802.523 293.136 802.523 291.872C802.523 290.592 802.139 289.552 801.387 288.736C800.619 287.904 799.611 287.504 798.363 287.504ZM798.363 288.992C799.115 288.992 799.707 289.28 800.123 289.888C800.475 290.4 800.667 291.072 800.667 291.872C800.667 292.656 800.475 293.312 800.123 293.84C799.707 294.432 799.115 294.736 798.363 294.736C797.595 294.736 797.019 294.432 796.603 293.84C796.251 293.328 796.075 292.672 796.075 291.872C796.075 291.072 796.251 290.4 796.603 289.888C797.019 289.28 797.595 288.992 798.363 288.992ZM807.956 287.504C806.692 287.504 805.684 287.904 804.932 288.736C804.164 289.552 803.796 290.592 803.796 291.872C803.796 293.136 804.164 294.176 804.916 294.976C805.684 295.808 806.692 296.224 807.956 296.224C809.204 296.224 810.228 295.808 810.996 294.976C811.732 294.176 812.116 293.136 812.116 291.872C812.116 290.592 811.732 289.552 810.98 288.736C810.212 287.904 809.204 287.504 807.956 287.504ZM807.956 288.992C808.708 288.992 809.3 289.28 809.716 289.888C810.068 290.4 810.26 291.072 810.26 291.872C810.26 292.656 810.068 293.312 809.716 293.84C809.3 294.432 808.708 294.736 807.956 294.736C807.188 294.736 806.612 294.432 806.196 293.84C805.844 293.328 805.668 292.672 805.668 291.872C805.668 291.072 805.844 290.4 806.196 289.888C806.612 289.28 807.188 288.992 807.956 288.992ZM817.902 287.504C816.814 287.504 815.982 287.872 815.406 288.608V287.728H813.71V299.168H815.534V294.864C816.206 295.76 817.038 296.224 817.998 296.224C819.182 296.224 820.126 295.792 820.798 294.928C821.422 294.128 821.742 293.12 821.742 291.904C821.742 290.624 821.422 289.6 820.782 288.8C820.078 287.936 819.118 287.504 817.902 287.504ZM817.63 288.976C818.43 288.976 819.022 289.264 819.406 289.84C819.71 290.32 819.87 291.008 819.87 291.904C819.87 292.8 819.694 293.488 819.358 293.968C818.974 294.48 818.366 294.752 817.566 294.752C816.974 294.752 816.494 294.512 816.11 294.032C815.678 293.504 815.47 292.8 815.47 291.936V291.808C815.47 290.976 815.63 290.32 815.982 289.824C816.366 289.248 816.91 288.976 817.63 288.976ZM823.655 282.768C824.311 283.872 824.823 284.976 825.191 286.08C825.655 287.456 825.895 288.848 825.895 290.24C825.895 291.616 825.655 293.008 825.191 294.4C824.823 295.488 824.311 296.592 823.655 297.712H825.175C825.927 296.656 826.519 295.568 826.935 294.448C827.415 293.104 827.671 291.696 827.671 290.256C827.671 288.784 827.415 287.392 826.935 286.048C826.519 284.896 825.927 283.808 825.175 282.768H823.655Z" fill="#095CAB"/>
<path d="M626.216 371.904V373.296H628.856V378.192H625.976V379.632H628.904C628.2 380.32 627.16 380.896 625.784 381.376L626.632 382.784C627.576 382.32 628.392 381.808 629.096 381.232V382.512H632.184V383.616H626.776V385.152H639.112V383.616H633.816V382.512H636.872V381.216C637.592 381.824 638.488 382.352 639.56 382.816L640.248 381.376C638.872 380.944 637.816 380.368 637.08 379.632H640.008V378.192H637.128V373.296H639.768V371.904H637.128V370.848H635.496V371.904H630.488V370.848H628.856V371.904H626.216ZM629.304 381.04C629.8 380.592 630.216 380.128 630.568 379.632H635.416C635.736 380.112 636.152 380.592 636.664 381.04H633.816V379.984H632.184V381.04H629.304ZM630.488 378.192V377.44H635.496V378.192H630.488ZM630.488 376.16V375.392H635.496V376.16H630.488ZM630.488 374.112V373.296H635.496V374.112H630.488ZM643.56 373.168C643.192 375.248 642.488 377.136 641.432 378.816L642.312 380.256C642.584 379.856 642.84 379.44 643.096 379.008V385.296H644.536V384.288H645.752V385.152H647.16V376.336H644.312C644.648 375.344 644.92 374.288 645.112 373.168H647.416V371.568H641.896V373.168H643.56ZM644.536 382.88V377.776H645.752V382.88H644.536ZM654.152 376.24H652.712V370.96H651.16V376.24H649.752V372.224H648.216V377.744H651.16V383.28H649.528V378.864H647.992V385.696H649.528V384.784H654.376V385.696H655.912V378.864H654.376V383.28H652.712V377.744H655.688V372.224H654.152V376.24ZM667.72 374.736H669.672C669.608 376.544 669.336 378.16 668.856 379.568C668.328 378.368 667.896 376.976 667.544 375.392C667.608 375.168 667.656 374.96 667.72 374.736ZM668.088 381.28C667.4 382.512 666.472 383.504 665.32 384.272L666.184 385.68C667.272 384.896 668.2 383.936 668.952 382.816C669.704 384 670.584 384.96 671.576 385.696L672.504 384.336C671.448 383.616 670.536 382.608 669.768 381.328C670.616 379.504 671.08 377.312 671.176 374.736H672.056V373.12H668.056C668.168 372.496 668.264 371.84 668.36 371.136L666.728 370.848C666.424 373.792 665.832 376.144 664.952 377.904L665.992 379.2C666.248 378.752 666.504 378.256 666.744 377.728C667.128 379.04 667.576 380.224 668.088 381.28ZM660.52 378.272C660.424 378.56 660.312 378.848 660.2 379.168H657.976V380.592H659.56C659.272 381.184 658.936 381.808 658.552 382.448C659.256 382.72 659.944 382.992 660.584 383.264C659.736 383.648 658.744 383.984 657.592 384.24L658.36 385.632C659.944 385.216 661.256 384.688 662.312 384.016C663.176 384.416 663.912 384.8 664.52 385.168L665.416 383.856C664.824 383.536 664.216 383.248 663.592 382.976C664.296 382.272 664.776 381.44 665.048 380.512V379.168H661.832C661.912 378.944 661.992 378.704 662.088 378.464L660.52 378.272ZM662.088 382.352C661.576 382.144 661.064 381.952 660.552 381.792C660.776 381.408 661 381.008 661.208 380.592H663.576C663.24 381.248 662.744 381.84 662.088 382.352ZM659.544 371.088L658.248 371.504C658.6 372.096 658.936 372.768 659.256 373.536L660.44 373.008C660.184 372.32 659.88 371.68 659.544 371.088ZM664.04 371.072C663.752 371.712 663.336 372.352 662.824 373.008L663.992 373.6C664.488 372.96 664.888 372.304 665.208 371.632L664.04 371.072ZM658.008 373.776V375.232H659.912C659.432 375.936 658.664 376.576 657.624 377.168L658.456 378.512C659.608 377.68 660.44 376.736 660.984 375.648V378.16H662.52V376.48C662.968 376.784 663.528 377.2 664.2 377.728L665.064 376.416C664.2 375.984 663.352 375.6 662.52 375.264V375.232H665.24V373.776H662.52V370.88H660.984V373.776H658.008ZM675.64 385.52C676.696 385.52 677.224 384.96 677.224 383.872V379.536C677.64 379.328 678.072 379.12 678.52 378.896V377.264C678.104 377.488 677.672 377.696 677.224 377.904V375.36H678.584V373.744H677.224V370.912H675.592V373.744H673.864V375.36H675.592V378.56C674.92 378.784 674.232 378.976 673.544 379.136L673.976 380.784C674.52 380.608 675.048 380.416 675.592 380.224V383.456C675.592 383.856 675.416 384.064 675.08 384.064C674.712 384.064 674.328 384.016 673.928 383.952L674.28 385.52H675.64ZM680.696 378.624H683.416V380.16H680.904V385.664H682.44V385.008H686.04V385.664H687.576V380.16H685.048V378.624H688.28V377.104H685.048V375.6H687.928V371.36H679.16V376.672C679.144 379.872 678.616 382.496 677.576 384.528L678.888 385.696C679.896 383.648 680.504 381.296 680.696 378.624ZM683.416 375.6V377.104H680.76C680.76 376.96 680.776 376.816 680.776 376.672V375.6H683.416ZM682.44 383.536V381.632H686.04V383.536H682.44ZM686.296 372.88V374.128H680.776V372.88H686.296ZM694.12 376.848V378.288H702.936V376.848H694.12ZM693 379.44V380.944H696.184C695.192 382.448 694.376 383.392 693.768 383.76C693.688 383.808 693.576 383.856 693.432 383.904L693.8 385.296C696.744 385.104 699.464 384.832 701.96 384.496C702.232 384.88 702.488 385.264 702.728 385.648L704.056 384.704C703.384 383.712 702.408 382.544 701.144 381.2L699.928 381.952C700.28 382.368 700.632 382.784 700.968 383.2C699.24 383.456 697.496 383.664 695.768 383.808C696.408 383.152 697.144 382.192 697.96 380.944H703.976V379.44H693ZM701.672 372.88V374.256H692.84V372.88H701.672ZM692.84 375.76H703.32V371.36H691.192V376.864C691.176 379.968 690.664 382.512 689.656 384.48L690.888 385.584C692.168 383.152 692.824 380.24 692.84 376.864V375.76ZM718.2 370.768C717.432 371.808 716.856 372.896 716.44 374.048C715.944 375.392 715.704 376.784 715.704 378.256C715.704 379.696 715.944 381.104 716.44 382.448C716.856 383.568 717.432 384.656 718.2 385.712H719.72C719.048 384.592 718.536 383.488 718.184 382.4C717.704 381.008 717.48 379.616 717.48 378.24C717.48 376.848 717.704 375.456 718.184 374.08C718.536 372.976 719.048 371.872 719.72 370.768H718.2ZM725.752 374.096V380.56H729.688V383.664C729.688 383.952 729.512 384.096 729.192 384.096C728.744 384.096 728.28 384.048 727.784 383.984L728.152 385.616H729.768C730.824 385.616 731.368 385.104 731.368 384.08V380.56H734.904V374.096H730.632C730.744 373.744 730.84 373.376 730.92 372.992H736.008V371.36H722.696V377.584C722.664 380.528 722.28 382.848 721.528 384.512L722.792 385.648C723.8 383.616 724.328 380.928 724.392 377.584V372.992H729.256C729.192 373.36 729.096 373.728 728.984 374.096H725.752ZM733.288 379.056H727.368V378.016H733.288V379.056ZM727.368 376.608V375.616H733.288V376.608H727.368ZM726.744 380.944C726.072 382.224 725.272 383.328 724.344 384.256L725.72 385.232C726.68 384.224 727.496 383.04 728.2 381.664L726.744 380.944ZM733.8 380.928L732.44 381.776C733.448 383.056 734.248 384.224 734.824 385.28L736.216 384.336C735.64 383.376 734.84 382.24 733.8 380.928ZM742.872 376.912H748.696V378.192H742.872V376.912ZM748.696 379.632V380.88H742.872V379.632H748.696ZM748.696 382.32V383.616C748.696 383.968 748.504 384.144 748.12 384.144C747.608 384.144 747.048 384.112 746.456 384.064L746.856 385.568H748.648C749.72 385.536 750.264 385.072 750.264 384.144V375.472H743.032C743.304 375.008 743.56 374.544 743.816 374.064H752.152V372.448H744.52C744.696 371.968 744.856 371.472 745.016 370.96L743.304 370.752C743.128 371.328 742.92 371.888 742.68 372.448H738.024V374.064H741.88C740.824 375.888 739.4 377.52 737.592 378.944L738.68 380.368C739.64 379.584 740.52 378.736 741.304 377.84V385.648H742.872V382.32H748.696ZM763.72 374.736H765.672C765.608 376.544 765.336 378.16 764.856 379.568C764.328 378.368 763.896 376.976 763.544 375.392C763.608 375.168 763.656 374.96 763.72 374.736ZM764.088 381.28C763.4 382.512 762.472 383.504 761.32 384.272L762.184 385.68C763.272 384.896 764.2 383.936 764.952 382.816C765.704 384 766.584 384.96 767.576 385.696L768.504 384.336C767.448 383.616 766.536 382.608 765.768 381.328C766.616 379.504 767.08 377.312 767.176 374.736H768.056V373.12H764.056C764.168 372.496 764.264 371.84 764.36 371.136L762.728 370.848C762.424 373.792 761.832 376.144 760.952 377.904L761.992 379.2C762.248 378.752 762.504 378.256 762.744 377.728C763.128 379.04 763.576 380.224 764.088 381.28ZM756.52 378.272C756.424 378.56 756.312 378.848 756.2 379.168H753.976V380.592H755.56C755.272 381.184 754.936 381.808 754.552 382.448C755.256 382.72 755.944 382.992 756.584 383.264C755.736 383.648 754.744 383.984 753.592 384.24L754.36 385.632C755.944 385.216 757.256 384.688 758.312 384.016C759.176 384.416 759.912 384.8 760.52 385.168L761.416 383.856C760.824 383.536 760.216 383.248 759.592 382.976C760.296 382.272 760.776 381.44 761.048 380.512V379.168H757.832C757.912 378.944 757.992 378.704 758.088 378.464L756.52 378.272ZM758.088 382.352C757.576 382.144 757.064 381.952 756.552 381.792C756.776 381.408 757 381.008 757.208 380.592H759.576C759.24 381.248 758.744 381.84 758.088 382.352ZM755.544 371.088L754.248 371.504C754.6 372.096 754.936 372.768 755.256 373.536L756.44 373.008C756.184 372.32 755.88 371.68 755.544 371.088ZM760.04 371.072C759.752 371.712 759.336 372.352 758.824 373.008L759.992 373.6C760.488 372.96 760.888 372.304 761.208 371.632L760.04 371.072ZM754.008 373.776V375.232H755.912C755.432 375.936 754.664 376.576 753.624 377.168L754.456 378.512C755.608 377.68 756.44 376.736 756.984 375.648V378.16H758.52V376.48C758.968 376.784 759.528 377.2 760.2 377.728L761.064 376.416C760.2 375.984 759.352 375.6 758.52 375.264V375.232H761.24V373.776H758.52V370.88H756.984V373.776H754.008ZM771.64 385.52C772.696 385.52 773.224 384.96 773.224 383.872V379.536C773.64 379.328 774.072 379.12 774.52 378.896V377.264C774.104 377.488 773.672 377.696 773.224 377.904V375.36H774.584V373.744H773.224V370.912H771.592V373.744H769.864V375.36H771.592V378.56C770.92 378.784 770.232 378.976 769.544 379.136L769.976 380.784C770.52 380.608 771.048 380.416 771.592 380.224V383.456C771.592 383.856 771.416 384.064 771.08 384.064C770.712 384.064 770.328 384.016 769.928 383.952L770.28 385.52H771.64ZM776.696 378.624H779.416V380.16H776.904V385.664H778.44V385.008H782.04V385.664H783.576V380.16H781.048V378.624H784.28V377.104H781.048V375.6H783.928V371.36H775.16V376.672C775.144 379.872 774.616 382.496 773.576 384.528L774.888 385.696C775.896 383.648 776.504 381.296 776.696 378.624ZM779.416 375.6V377.104H776.76C776.76 376.96 776.776 376.816 776.776 376.672V375.6H779.416ZM778.44 383.536V381.632H782.04V383.536H778.44ZM782.296 372.88V374.128H776.776V372.88H782.296ZM793.848 370.752L791.976 371.072C792.232 371.392 792.456 371.744 792.664 372.128H786.824V377.12C786.792 380.224 786.376 382.656 785.576 384.4L787 385.664C787.96 383.52 788.472 380.672 788.52 377.12V373.76H800.184V372.128H794.536C794.312 371.616 794.072 371.168 793.848 370.752ZM792.264 373.904C792.104 374.352 791.96 374.8 791.8 375.232H789.144V376.688H791.192C790.744 377.616 790.28 378.4 789.784 379.024L790.136 380.496H794.072V381.776H788.552V383.296H794.072V385.696H795.736V383.296H800.328V381.776H795.736V380.496H799.144V378.992H795.736V377.312H794.072V378.992H791.816C792.232 378.32 792.616 377.552 792.984 376.688H799.48V375.232H793.544C793.64 374.912 793.752 374.592 793.848 374.272L792.264 373.904ZM802.28 370.768C802.936 371.872 803.448 372.976 803.816 374.08C804.28 375.456 804.52 376.848 804.52 378.24C804.52 379.616 804.28 381.008 803.816 382.4C803.448 383.488 802.936 384.592 802.28 385.712H803.8C804.552 384.656 805.144 383.568 805.56 382.448C806.04 381.104 806.296 379.696 806.296 378.256C806.296 376.784 806.04 375.392 805.56 374.048C805.144 372.896 804.552 371.808 803.8 370.768H802.28Z" fill="#095CAB"/>
<path d="M511.184 33.928V36.136H506.048V45.512H507.696V44.584H511.184V48.584H512.88V44.584H516.304V45.4H517.952V36.136H512.88V33.928H511.184ZM507.696 43.016V41.08H511.184V43.016H507.696ZM512.88 43.016V41.08H516.304V43.016H512.88ZM507.696 39.592V37.688H511.184V39.592H507.696ZM512.88 39.592V37.688H516.304V39.592H512.88ZM526.256 40.04C525.712 40.328 525.152 40.584 524.608 40.84V38.216H526.224V36.632H524.608V33.912H522.96V36.632H520.832V38.216H522.96V41.48C522.16 41.752 521.344 41.976 520.512 42.152L520.928 43.8C521.6 43.592 522.288 43.368 522.96 43.112V46.552C522.96 46.936 522.768 47.128 522.416 47.128C522 47.128 521.568 47.08 521.104 47.016L521.488 48.616H523.008C524.064 48.616 524.608 48.056 524.608 46.968V42.456C525.152 42.216 525.712 41.96 526.256 41.704V40.04ZM528.416 41.608H529.024C529.264 43.048 529.888 44.392 530.88 45.64C530.272 46.28 529.52 46.824 528.624 47.256L529.424 48.728C530.416 48.248 531.28 47.64 532.016 46.888C532.688 47.528 533.472 48.136 534.384 48.712L535.504 47.416C534.528 46.888 533.68 46.312 532.96 45.688C533.712 44.536 534.208 43.144 534.448 41.528V40.088H528.416V35.88H532.752C532.72 36.68 532.64 37.176 532.544 37.384C532.448 37.544 532.304 37.64 532.144 37.688C531.952 37.72 531.68 37.736 531.312 37.736C530.944 37.736 530.64 37.72 530.4 37.72L530.848 39.144H532.064C533.152 39.144 533.808 38.84 534.032 38.232C534.24 37.592 534.352 36.296 534.352 34.376H526.832V48.68H528.416V41.608ZM530.496 41.608H532.88C532.656 42.664 532.288 43.608 531.792 44.44C531.136 43.576 530.704 42.632 530.496 41.608ZM539.408 40.552V44.712H548.656V40.552H539.408ZM546.976 43.24H541.088V42.008H546.976V43.24ZM541.2 44.808L539.632 45.4C540.08 45.8 540.48 46.216 540.816 46.664H537.056V48.248H550.912V46.664H547.424C547.744 46.248 548.048 45.8 548.336 45.32L546.784 44.76C546.448 45.416 546.064 46.056 545.616 46.664H542.592C542.176 45.96 541.712 45.336 541.2 44.808ZM538.688 35.992L537.568 37.048C538.304 37.56 538.928 38.056 539.456 38.536C538.656 39.096 537.712 39.592 536.592 40.024L537.616 41.336C539.12 40.712 540.384 39.96 541.408 39.064V39.576H547.28V38.984C548.208 39.832 549.296 40.6 550.544 41.304L551.648 40.024C550.784 39.592 550.016 39.112 549.312 38.6C549.952 38.104 550.528 37.544 551.008 36.936L549.84 35.912C549.36 36.536 548.8 37.112 548.128 37.624C547.808 37.336 547.52 37.048 547.264 36.728C547.92 36.248 548.496 35.704 548.976 35.128L547.808 34.088C547.408 34.6 546.928 35.08 546.368 35.528C546.016 35 545.712 34.44 545.456 33.848L544.064 34.616C544.624 35.864 545.392 37 546.352 38.056H542.384C543.008 37.32 543.504 36.488 543.872 35.56V34.312H538.352V35.848H541.984C541.632 36.456 541.184 37.032 540.624 37.576C540.08 37.064 539.424 36.536 538.688 35.992ZM567.6 44.168L565.936 43.624C565.872 44.76 565.776 45.528 565.648 45.944C565.52 46.36 565.168 46.584 564.624 46.584H561.456C561.008 46.552 560.784 46.312 560.784 45.864V40.872H566.368V34.472H558.496V36.072H564.768V39.272H559.152V46.536C559.152 47.608 559.664 48.152 560.72 48.152H564.896C565.92 48.152 566.576 47.896 566.88 47.416C567.2 46.904 567.44 45.816 567.6 44.168ZM554.848 33.96L553.664 35.112C554.8 35.944 555.68 36.728 556.288 37.464L557.44 36.296C556.72 35.528 555.856 34.744 554.848 33.96ZM552.624 38.584V40.184H554.816V45.864C554.816 46.2 554.672 46.488 554.384 46.728L555.024 48.232C556.256 47.48 557.424 46.632 558.512 45.672L558.064 43.928C557.488 44.456 556.944 44.92 556.432 45.336V38.584H552.624Z" fill="#095CAB"/>
<path d="M707.128 37.4H709.048V40.776H704.472V42.392H709.048V48.68H710.728V42.392H714.504V40.776H710.728V37.4H713.896V35.8H707.8C707.992 35.256 708.152 34.664 708.28 34.04L706.648 33.752C706.2 35.88 705.336 37.576 704.056 38.84L705.128 40.152C705.928 39.4 706.584 38.488 707.128 37.4ZM701.768 33.96L700.584 35.112C701.72 35.944 702.6 36.728 703.208 37.464L704.36 36.296C703.656 35.528 702.792 34.744 701.768 33.96ZM699.64 38.584V40.184H701.736V45.864C701.736 46.2 701.592 46.488 701.32 46.728L701.96 48.232C703.128 47.464 704.232 46.6 705.288 45.608L704.824 43.864C704.312 44.376 703.816 44.824 703.352 45.24V38.584H699.64ZM715.816 34.712V36.328H726.568V46.344C726.568 46.792 726.36 47.032 725.976 47.032C725.176 47.032 724.328 47 723.464 46.936L723.848 48.552H726.552C727.672 48.552 728.248 47.944 728.248 46.76V36.328H730.232V34.712H715.816ZM724.136 38.248H717.528V45.8H719.128V44.52H724.136V38.248ZM719.128 43.016V39.736H722.552V43.016H719.128ZM744.568 33.928C741.272 34.312 737.24 34.504 732.504 34.504L733 35.992C738.136 35.992 742.264 35.768 745.368 35.32L744.568 33.928ZM745.912 38.648H743.112C743.576 38.04 744.04 37.32 744.488 36.456L742.792 35.816C742.376 36.808 741.896 37.752 741.32 38.648H738.888L740.12 38.024C739.64 37.272 739.128 36.6 738.616 36.008L737.128 36.728C737.64 37.288 738.104 37.928 738.552 38.648H735.496L736.376 38.216C735.864 37.432 735.352 36.728 734.808 36.104L733.336 36.824C733.832 37.368 734.312 37.976 734.76 38.648H732.088V42.568H733.72V40.216H744.28V42.568H745.912V38.648ZM734.248 41.32V42.824H734.776C735.352 43.912 736.264 44.888 737.528 45.752C735.96 46.36 734.056 46.84 731.816 47.208L732.68 48.792C735.272 48.264 737.448 47.576 739.208 46.728C740.84 47.528 742.856 48.216 745.288 48.76L746.248 47.24C744.184 46.824 742.408 46.328 740.936 45.752C742.216 44.888 743.16 43.88 743.736 42.728V41.32H734.248ZM736.52 42.824H741.848C741.224 43.624 740.344 44.328 739.224 44.952C738.04 44.312 737.144 43.608 736.52 42.824ZM753.464 34.36V42.12H756.744V43.592H753.288V45.144H756.744V46.632H752.68V48.248H762.392V46.632H758.408V45.144H761.848V43.592H758.408V42.12H761.656V34.36H753.464ZM760.056 40.648H758.408V38.952H760.056V40.648ZM756.744 40.648H755.064V38.952H756.744V40.648ZM755.064 37.528V35.832H756.744V37.528H755.064ZM758.408 35.832H760.056V37.528H758.408V35.832ZM747.976 39.608V41.208H749.496V44.728C748.872 44.888 748.232 45.016 747.576 45.128L747.992 46.728C749.656 46.328 751.224 45.848 752.696 45.272V43.656C752.2 43.864 751.704 44.056 751.192 44.232V41.208H752.744V39.608H751.192V36.344H752.936V34.76H747.736V36.344H749.496V39.608H747.976Z" fill="#095CAB"/>
<path d="M902.856 37.24H907.88V35.608H903.416C903.544 35.128 903.672 34.616 903.784 34.072L902.056 33.752C901.672 35.96 900.952 37.704 899.88 39.016L900.936 40.312C901.704 39.496 902.344 38.472 902.856 37.24ZM904.584 37.944L903.24 38.792C904.008 39.816 904.632 40.76 905.08 41.624L906.472 40.664C906.024 39.896 905.4 38.984 904.584 37.944ZM897.896 33.832V41.832H899.576V33.832H897.896ZM894.616 34.616V41.24H896.264V34.616H894.616ZM906.728 42.328H895.304V46.744H893.672V48.232H908.28V46.744H906.728V42.328ZM896.92 46.744V43.832H898.536V46.744H896.92ZM900.152 46.744V43.832H901.816V46.744H900.152ZM903.432 46.744V43.832H905.112V46.744H903.432ZM910.92 34.088L909.8 35.16C910.776 35.944 911.528 36.68 912.04 37.352L913.128 36.264C912.52 35.544 911.784 34.824 910.92 34.088ZM910.664 38.008L909.544 39.08C910.488 39.912 911.224 40.696 911.736 41.432L912.808 40.344C912.232 39.576 911.512 38.792 910.664 38.008ZM911.624 42.408C911.048 44.248 910.392 46.056 909.624 47.832L911.128 48.488C911.832 46.76 912.456 44.92 913.032 42.968L911.624 42.408ZM919.208 34.6H913.4V44.632H914.872V36.024H917.736V44.536H919.208V34.6ZM917.496 45.144L916.504 46.12C917.448 47.032 918.168 47.88 918.68 48.68L919.8 47.576C919.16 46.776 918.392 45.96 917.496 45.144ZM915.624 36.872V41.88C915.576 43.288 915.352 44.424 914.968 45.288C914.568 46.088 913.8 46.776 912.664 47.32L913.528 48.712C914.712 48.152 915.576 47.352 916.104 46.328C916.648 45.208 916.936 43.736 917 41.88V36.872H915.624ZM922.424 48.536C923.416 48.536 923.912 47.992 923.912 46.92V33.96H922.344V46.52C922.344 46.904 922.184 47.112 921.88 47.112C921.384 47.112 920.856 47.064 920.312 47L920.664 48.536H922.424ZM920.024 35.272V45.128H921.48V35.272H920.024ZM932.328 34.36V35.928H935.608C935.544 36.376 935.48 36.824 935.384 37.24H932.744V45.032H934.312V38.712H938.328V45.032H939.896V37.24H937C937.096 36.824 937.176 36.376 937.24 35.928H940.328V34.36H932.328ZM937.704 44.92L936.632 45.96C937.8 46.92 938.696 47.832 939.336 48.664L940.504 47.496C939.736 46.648 938.792 45.784 937.704 44.92ZM935.48 39.464V42.28C935.416 43.56 935.128 44.584 934.616 45.384C934.072 46.12 933.048 46.728 931.544 47.224L932.456 48.648C934.024 48.136 935.176 47.384 935.896 46.424C936.616 45.4 937.016 44.008 937.08 42.28V39.464H935.48ZM927.592 36.472L926.376 37.24C927.112 37.976 927.768 38.664 928.344 39.32H925.64V40.856H927.768V46.664C927.768 47 927.64 47.176 927.384 47.176C926.952 47.176 926.504 47.144 926.024 47.08L926.376 48.584H927.944C928.872 48.584 929.352 48.072 929.352 47.064V40.856H930.504C930.296 41.576 930.072 42.2 929.816 42.728L931.176 43.256C931.512 42.552 931.8 41.576 932.056 40.328V39.32H930.152C929.976 39.096 929.784 38.856 929.576 38.616C930.312 37.8 931 36.808 931.624 35.656V34.36H926.088V35.896H929.848C929.464 36.504 929.064 37.064 928.632 37.544C928.312 37.192 927.976 36.84 927.592 36.472ZM942.152 34.424V35.608H943.896V36.008L943.064 35.864C942.808 36.792 942.344 37.544 941.672 38.088L942.552 39.176C942.824 38.952 943.08 38.68 943.32 38.392V40.264H946.712L946.824 40.632H947.48C947.64 40.616 947.816 40.6 947.992 40.568C948.088 40.696 948.168 40.84 948.248 41H942.056V42.168H955.96V41H949.864C949.736 40.68 949.592 40.376 949.464 40.104L948.712 40.216C948.792 40.152 948.856 40.072 948.92 39.976C949.144 39.608 949.272 38.712 949.304 37.272L950.104 38.28C950.392 38.024 950.68 37.736 950.936 37.416C951.128 37.784 951.4 38.136 951.72 38.472C951.144 38.824 950.408 39.096 949.544 39.272L950.152 40.616C951.224 40.36 952.136 39.976 952.888 39.432C953.592 39.896 954.44 40.296 955.448 40.632L956.2 39.32C955.32 39.064 954.568 38.76 953.944 38.408C954.44 37.736 954.792 36.936 955 36.008H955.864V34.664H952.296C952.36 34.456 952.408 34.232 952.472 34.008L950.968 33.752C950.68 35.08 950.136 36.168 949.32 37V36.408H944.328C944.344 36.344 944.36 36.264 944.392 36.168H945.272V35.608H946.6V36.168H947.976V35.608H949.768V34.424H947.976V33.816H946.6V34.424H945.272V33.816H943.896V34.424H942.152ZM946.872 39.592V37.944H943.64C943.72 37.8 943.8 37.64 943.896 37.48H947.8C947.784 38.376 947.752 38.936 947.688 39.192C947.608 39.432 947.432 39.56 947.176 39.592H946.872ZM945.656 39.448H944.536V38.776H945.656V39.448ZM951.784 36.008H953.592C953.432 36.6 953.144 37.128 952.76 37.592C952.28 37.16 951.928 36.68 951.72 36.136C951.736 36.104 951.752 36.056 951.784 36.008ZM943.992 42.648V43.592H954.152V42.648H943.992ZM943.992 44.088V45.032H954.152V44.088H943.992ZM954.76 45.592H943.416V48.792H945.048V48.376H953.144V48.792H954.76V45.592ZM945.048 47.32V46.648H953.144V47.32H945.048Z" fill="#095CAB"/>
<path d="M1092.5 46.44V48.072H1103.94V46.44H1100.89C1101.78 44.184 1102.54 41.64 1103.14 38.792L1101.48 38.328C1100.79 41.528 1099.99 44.232 1099.08 46.44H1092.5ZM1094.58 39.112L1093.14 39.592C1093.78 41.432 1094.3 43.352 1094.71 45.352L1096.3 44.936C1095.78 42.744 1095.22 40.808 1094.58 39.112ZM1097.64 37.944L1096.2 38.424C1096.74 40.328 1097.18 42.312 1097.53 44.36L1099.11 43.96C1098.68 41.704 1098.18 39.704 1097.64 37.944ZM1097.75 33.752L1095.88 34.072C1096.14 34.44 1096.38 34.84 1096.6 35.272H1090.82V40.152C1090.79 43.256 1090.38 45.688 1089.58 47.432L1091 48.696C1091.96 46.552 1092.47 43.704 1092.52 40.152V36.888H1104.18V35.272H1098.46C1098.23 34.712 1097.99 34.2 1097.75 33.752ZM1118.23 43.384V37.4H1115.27C1115.66 36.984 1116.06 36.504 1116.46 35.96V34.824H1111.56C1111.72 34.568 1111.9 34.312 1112.09 34.04L1110.41 33.656C1109.05 35.624 1107.46 37.144 1105.64 38.232L1106.7 39.512C1107.02 39.304 1107.32 39.096 1107.62 38.872H1116.62V39.688H1108.17V41.096H1116.62V41.912H1107.56V43.384H1118.23ZM1113.24 37.4H1109.37C1109.75 37.016 1110.12 36.616 1110.49 36.2H1114.41C1114.01 36.648 1113.62 37.048 1113.24 37.4ZM1107.35 44.072C1107.05 45.224 1106.54 46.312 1105.8 47.336L1107.24 48.248C1107.99 47.16 1108.57 45.88 1108.98 44.408L1107.35 44.072ZM1115.24 48.456C1115.88 48.456 1116.36 48.344 1116.68 48.12C1117.03 47.864 1117.27 47.096 1117.4 45.816L1115.82 45.288C1115.77 46.104 1115.67 46.6 1115.51 46.76C1115.38 46.888 1115.19 46.968 1114.94 46.968H1111.83C1111.5 46.968 1111.34 46.776 1111.34 46.392V43.992H1109.67V46.76C1109.67 47.88 1110.23 48.456 1111.35 48.456H1115.24ZM1113.48 43.48L1112.1 44.328C1112.82 45.08 1113.38 45.768 1113.8 46.376L1115.19 45.416C1114.79 44.872 1114.22 44.216 1113.48 43.48ZM1118.2 43.688L1116.86 44.536C1117.78 45.816 1118.5 46.984 1119.05 48.04L1120.44 47.064C1119.91 46.104 1119.16 44.968 1118.2 43.688ZM1133.7 40.136H1124.31V48.664H1125.99V48.136H1132.81V48.68H1134.46V44.328H1125.99V43.576H1133.7V40.136ZM1125.99 46.664V45.64H1132.81V46.664H1125.99ZM1125.99 42.264V41.464H1132.09V42.264H1125.99ZM1135.91 38.104H1129.9C1129.8 37.816 1129.69 37.544 1129.59 37.288L1130.33 37.752C1130.65 37.304 1130.95 36.824 1131.22 36.312H1131.94C1132.28 36.792 1132.57 37.288 1132.82 37.8L1134.3 37.24C1134.14 36.952 1133.94 36.632 1133.72 36.312H1136.25V34.856H1131.85C1131.93 34.632 1132.01 34.392 1132.09 34.152L1130.5 33.8C1130.18 34.888 1129.66 35.912 1128.92 36.872L1129.24 37.08L1127.83 37.32C1127.96 37.56 1128.09 37.816 1128.22 38.104H1122.09V41.24H1123.72V39.512H1134.28V41.24H1135.91V38.104ZM1124.34 36.312H1124.94C1125.29 36.84 1125.59 37.384 1125.85 37.96L1127.37 37.368C1127.19 37.032 1126.97 36.68 1126.71 36.312H1128.98V34.856H1125.05C1125.14 34.616 1125.22 34.376 1125.32 34.136L1123.7 33.784C1123.34 34.904 1122.7 35.976 1121.77 36.968L1123.22 37.896C1123.64 37.416 1124.01 36.888 1124.34 36.312ZM1143.46 34.36V42.12H1146.74V43.592H1143.29V45.144H1146.74V46.632H1142.68V48.248H1152.39V46.632H1148.41V45.144H1151.85V43.592H1148.41V42.12H1151.66V34.36H1143.46ZM1150.06 40.648H1148.41V38.952H1150.06V40.648ZM1146.74 40.648H1145.06V38.952H1146.74V40.648ZM1145.06 37.528V35.832H1146.74V37.528H1145.06ZM1148.41 35.832H1150.06V37.528H1148.41V35.832ZM1137.98 39.608V41.208H1139.5V44.728C1138.87 44.888 1138.23 45.016 1137.58 45.128L1137.99 46.728C1139.66 46.328 1141.22 45.848 1142.7 45.272V43.656C1142.2 43.864 1141.7 44.056 1141.19 44.232V41.208H1142.74V39.608H1141.19V36.344H1142.94V34.76H1137.74V36.344H1139.5V39.608H1137.98Z" fill="#095CAB"/>
<path d="M80.72 297.736H82.672C82.608 299.544 82.336 301.16 81.856 302.568C81.328 301.368 80.896 299.976 80.544 298.392C80.608 298.168 80.656 297.96 80.72 297.736ZM81.088 304.28C80.4 305.512 79.472 306.504 78.32 307.272L79.184 308.68C80.272 307.896 81.2 306.936 81.952 305.816C82.704 307 83.584 307.96 84.576 308.696L85.504 307.336C84.448 306.616 83.536 305.608 82.768 304.328C83.616 302.504 84.08 300.312 84.176 297.736H85.056V296.12H81.056C81.168 295.496 81.264 294.84 81.36 294.136L79.728 293.848C79.424 296.792 78.832 299.144 77.952 300.904L78.992 302.2C79.248 301.752 79.504 301.256 79.744 300.728C80.128 302.04 80.576 303.224 81.088 304.28ZM73.52 301.272C73.424 301.56 73.312 301.848 73.2 302.168H70.976V303.592H72.56C72.272 304.184 71.936 304.808 71.552 305.448C72.256 305.72 72.944 305.992 73.584 306.264C72.736 306.648 71.744 306.984 70.592 307.24L71.36 308.632C72.944 308.216 74.256 307.688 75.312 307.016C76.176 307.416 76.912 307.8 77.52 308.168L78.416 306.856C77.824 306.536 77.216 306.248 76.592 305.976C77.296 305.272 77.776 304.44 78.048 303.512V302.168H74.832C74.912 301.944 74.992 301.704 75.088 301.464L73.52 301.272ZM75.088 305.352C74.576 305.144 74.064 304.952 73.552 304.792C73.776 304.408 74 304.008 74.208 303.592H76.576C76.24 304.248 75.744 304.84 75.088 305.352ZM72.544 294.088L71.248 294.504C71.6 295.096 71.936 295.768 72.256 296.536L73.44 296.008C73.184 295.32 72.88 294.68 72.544 294.088ZM77.04 294.072C76.752 294.712 76.336 295.352 75.824 296.008L76.992 296.6C77.488 295.96 77.888 295.304 78.208 294.632L77.04 294.072ZM71.008 296.776V298.232H72.912C72.432 298.936 71.664 299.576 70.624 300.168L71.456 301.512C72.608 300.68 73.44 299.736 73.984 298.648V301.16H75.52V299.48C75.968 299.784 76.528 300.2 77.2 300.728L78.064 299.416C77.2 298.984 76.352 298.6 75.52 298.264V298.232H78.24V296.776H75.52V293.88H73.984V296.776H71.008ZM88.64 308.52C89.696 308.52 90.224 307.96 90.224 306.872V302.536C90.64 302.328 91.072 302.12 91.52 301.896V300.264C91.104 300.488 90.672 300.696 90.224 300.904V298.36H91.584V296.744H90.224V293.912H88.592V296.744H86.864V298.36H88.592V301.56C87.92 301.784 87.232 301.976 86.544 302.136L86.976 303.784C87.52 303.608 88.048 303.416 88.592 303.224V306.456C88.592 306.856 88.416 307.064 88.08 307.064C87.712 307.064 87.328 307.016 86.928 306.952L87.28 308.52H88.64ZM93.696 301.624H96.416V303.16H93.904V308.664H95.44V308.008H99.04V308.664H100.576V303.16H98.048V301.624H101.28V300.104H98.048V298.6H100.928V294.36H92.16V299.672C92.144 302.872 91.616 305.496 90.576 307.528L91.888 308.696C92.896 306.648 93.504 304.296 93.696 301.624ZM96.416 298.6V300.104H93.76C93.76 299.96 93.776 299.816 93.776 299.672V298.6H96.416ZM95.44 306.536V304.632H99.04V306.536H95.44ZM99.296 295.88V297.128H93.776V295.88H99.296ZM109.136 293.784V296.52H103.472V304.328H105.152V303.448H109.136V308.792H110.864V303.448H114.864V304.328H116.544V296.52H110.864V293.784H109.136ZM105.152 301.816V298.152H109.136V301.816H105.152ZM110.864 301.816V298.152H114.864V301.816H110.864ZM131.52 301.832H120.48V308.696H122.176V308.088H129.824V308.696H131.52V301.832ZM122.176 306.488V303.432H129.824V306.488H122.176ZM119.472 300.408C123.552 300.264 127.264 300.04 130.592 299.736C130.96 300.344 131.328 300.968 131.68 301.624L133.312 300.824C132.16 298.888 130.96 297.128 129.68 295.528L128.16 296.248C128.656 296.872 129.152 297.544 129.632 298.248C127.168 298.472 124.64 298.648 122.048 298.776C123.36 297.56 124.624 296.088 125.856 294.392L124.128 293.784C121.952 296.968 120.288 298.648 119.168 298.824L119.472 300.408Z" fill="#E6F8FF"/>
<path d="M313.47 541.952L314.574 540.848C313.998 539.952 313.438 539.136 312.894 538.4C313.262 537.088 313.566 535.648 313.806 534.048L312.27 533.776C312.126 534.832 311.934 535.856 311.71 536.816C311.166 536.112 310.654 535.504 310.174 534.992L309.23 535.904V532.976H319.086V541.488C318.51 540.528 317.95 539.632 317.406 538.816C317.854 537.408 318.222 535.824 318.494 534.096L316.926 533.824C316.75 534.992 316.526 536.096 316.254 537.136C315.71 536.368 315.198 535.728 314.734 535.184L313.71 536.176C314.398 537.072 315.07 537.984 315.71 538.928C315.166 540.432 314.494 541.744 313.694 542.896L314.75 544.208C315.518 543.184 316.19 541.984 316.766 540.576C317.214 541.28 317.63 542 318.046 542.736L319.086 541.696V543.504C319.086 543.856 318.894 544.032 318.526 544.032L317.054 543.952L317.47 545.568H319.07C320.174 545.568 320.734 545.008 320.734 543.888V531.376H307.582V545.68H309.23V536.08C309.902 536.896 310.574 537.744 311.214 538.608C310.734 540.08 310.126 541.392 309.39 542.512L310.446 543.824C311.166 542.8 311.79 541.584 312.318 540.176C312.702 540.752 313.086 541.344 313.47 541.952ZM328.606 542.16C327.022 542.736 325.182 543.184 323.07 543.52L323.278 545.152C325.278 544.784 327.054 544.304 328.606 543.728V542.16ZM325.454 530.784C324.91 532.48 324.27 534.048 323.534 535.472C323.326 535.76 323.102 535.968 322.846 536.08L323.246 537.6C324.014 537.488 324.75 537.376 325.454 537.28C324.782 538.512 324.222 539.376 323.774 539.856C323.566 540.048 323.31 540.208 323.022 540.336L323.454 541.84C324.974 541.632 326.59 541.216 328.302 540.608V539.12C327.326 539.472 326.366 539.76 325.422 539.984C326.206 538.912 327.166 537.264 328.302 535.04L329.166 536.176C329.598 535.824 329.998 535.44 330.382 535.024C330.718 535.552 331.118 536.064 331.582 536.56C330.526 537.248 329.278 537.856 327.822 538.368L328.862 539.728C329.038 539.664 329.23 539.584 329.422 539.504V545.536H331.022V544.976H334.686V545.536H336.286V539.504L336.782 539.664L337.726 538.288C336.318 537.904 335.086 537.344 334.03 536.64C335.022 535.68 335.79 534.592 336.302 533.344V532.144H332.174C332.302 531.824 332.414 531.504 332.51 531.184L330.926 530.864C330.478 532.336 329.662 533.6 328.446 534.64L327.054 534.112L326.238 535.792L324.782 535.984C325.534 534.8 326.286 533.264 327.022 531.392L325.454 530.784ZM331.278 533.856C331.326 533.792 331.374 533.712 331.438 533.616H334.478C334.03 534.352 333.47 535.024 332.766 535.648C332.19 535.12 331.694 534.528 331.278 533.856ZM336.158 539.456H329.55C330.782 538.944 331.87 538.336 332.798 537.664C333.742 538.4 334.862 538.992 336.158 539.456ZM331.022 543.472V540.96H334.686V543.472H331.022ZM345.614 545.616C346.654 545.616 347.182 545.072 347.182 544V540.064C348.398 539.968 349.518 539.872 350.542 539.76C350.894 540.288 351.23 540.8 351.518 541.312L352.846 540.4C352.142 539.232 351.118 537.872 349.79 536.32L348.558 537.088C348.91 537.536 349.262 537.984 349.598 538.432C348.03 538.624 346.19 538.784 344.11 538.928C345.934 537.872 348.094 536.272 350.574 534.144L349.038 533.392C348.334 534.032 347.662 534.624 347.006 535.168C345.95 535.248 344.878 535.328 343.822 535.392C344.67 534.784 345.486 534.016 346.254 533.12C348.59 532.96 350.606 532.704 352.318 532.352L351.502 530.96C348.302 531.552 344.414 531.856 339.838 531.856L340.318 533.296C341.662 533.296 342.942 533.264 344.19 533.232C343.358 534.16 342.67 534.752 342.11 535.024C341.758 535.184 341.39 535.28 340.99 535.328L341.326 536.784C342.702 536.704 344.03 536.624 345.278 536.528C343.934 537.504 342.702 538.224 341.598 538.704C341.166 538.864 340.686 538.96 340.158 539.008L340.622 540.464C342.382 540.384 343.998 540.288 345.502 540.192V543.584C345.502 543.92 345.342 544.096 345.038 544.096C344.51 544.096 343.966 544.048 343.406 543.984L343.79 545.616H345.614ZM349.326 540.736L348.222 541.808C349.902 543.072 351.198 544.256 352.11 545.344L353.294 544.16C352.222 543.024 350.894 541.888 349.326 540.736ZM342.814 540.848C341.758 542.016 340.478 543.04 338.942 543.92L339.982 545.28C341.582 544.32 342.91 543.184 343.982 541.888L342.814 540.848ZM360.27 541.664C358.798 542.368 357.07 542.944 355.102 543.376L355.31 545.04C357.166 544.592 358.814 543.984 360.27 543.248V541.664ZM357.39 530.784C356.846 532.48 356.206 534.032 355.47 535.44C355.246 535.76 355.006 535.968 354.75 536.08L355.166 537.616C355.902 537.504 356.638 537.392 357.342 537.296C356.638 538.512 356.062 539.36 355.614 539.84C355.422 540.032 355.166 540.192 354.862 540.32L355.31 541.856C356.862 541.616 358.51 541.136 360.27 540.4V538.864C359.294 539.296 358.334 539.648 357.39 539.904C358.222 538.768 359.262 537.024 360.51 534.672L359.022 534.096C358.718 534.688 358.43 535.248 358.174 535.76C357.694 535.84 357.214 535.904 356.734 535.952C357.502 534.768 358.254 533.264 358.99 531.408L357.39 530.784ZM360.718 538.128C363.038 537.952 365.182 537.712 367.15 537.424C367.374 537.776 367.582 538.144 367.774 538.496L369.07 537.584C368.51 536.576 367.71 535.392 366.67 534.032L365.39 534.832L366.254 536.032C365.07 536.224 363.87 536.384 362.654 536.496C363.102 535.888 363.614 535.056 364.19 533.968H369.054V532.384H365.582C365.39 531.776 365.198 531.216 365.006 530.736L363.31 531.024C363.534 531.44 363.726 531.904 363.902 532.384H360.062V533.968H362.446C361.726 535.328 361.134 536.176 360.686 536.528C360.622 536.56 360.51 536.608 360.366 536.656L360.718 538.128ZM361.854 538.544C361.79 540.288 361.582 541.536 361.23 542.288C360.862 543.056 360.238 543.728 359.342 544.304L360.414 545.648C361.502 544.912 362.27 544.032 362.734 543.024C363.15 542.08 363.39 540.592 363.486 538.544H361.854ZM367.774 545.376C368.542 545.312 369.054 545.136 369.278 544.816C369.502 544.464 369.63 543.536 369.63 542L368.206 541.488C368.206 542.224 368.174 542.816 368.142 543.248C368.11 543.648 367.966 543.872 367.694 543.904H366.846C366.67 543.856 366.59 543.712 366.59 543.472V538.352H365.006V543.808C365.006 544.848 365.598 545.376 366.798 545.376H367.774Z" fill="#095CAB"/>
<path d="M1074.23 538.448H1064.88C1066.55 538.032 1068.05 537.504 1069.41 536.848C1070.8 537.52 1072.4 538.064 1074.23 538.448ZM1071.01 535.936C1072.26 535.136 1073.33 534.192 1074.24 533.104V531.84H1068.05C1068.23 531.584 1068.4 531.328 1068.6 531.04L1066.95 530.672C1065.72 532.384 1064.28 533.696 1062.64 534.624L1063.72 535.92C1064.44 535.472 1065.12 534.944 1065.8 534.352C1066.39 534.928 1067.06 535.472 1067.83 535.952C1066.13 536.64 1064.18 537.136 1061.97 537.424L1062.69 538.896C1063.17 538.8 1063.64 538.72 1064.12 538.624V545.664H1065.7V545.104H1073.03V545.664H1074.61V538.528C1075.06 538.608 1075.54 538.688 1076.02 538.768L1076.74 537.296C1074.56 537.008 1072.64 536.56 1071.01 535.936ZM1066.79 533.376L1066.87 533.296H1072.12C1071.32 534.016 1070.42 534.656 1069.4 535.216C1068.4 534.704 1067.52 534.08 1066.79 533.376ZM1065.7 543.696V542.4H1068.56V543.696H1065.7ZM1070.13 543.696V542.4H1073.03V543.696H1070.13ZM1065.7 541.088V539.824H1068.56V541.088H1065.7ZM1070.13 539.824H1073.03V541.088H1070.13V539.824ZM1085.32 538.56C1085.09 539.872 1084.79 540.928 1084.37 541.728C1083.89 542.656 1083.17 543.488 1082.21 544.224L1083.3 545.616C1084.44 544.704 1085.3 543.68 1085.88 542.528C1086.32 541.536 1086.69 540.208 1086.96 538.56H1089.2C1089.17 541.056 1089.12 542.512 1089.03 542.928C1088.95 543.568 1088.66 543.904 1088.15 543.904C1087.64 543.904 1087.03 543.872 1086.32 543.808L1086.72 545.376C1087.52 545.424 1088.1 545.456 1088.44 545.456C1089.72 545.456 1090.44 544.88 1090.6 543.744C1090.76 542.88 1090.84 540.608 1090.84 536.928H1083.73C1084.82 535.568 1085.72 533.808 1086.44 531.632L1084.88 530.992C1084.18 533.376 1083.08 535.28 1081.6 536.72L1082.9 537.856C1083.09 537.664 1083.27 537.472 1083.46 537.248V538.56H1085.32ZM1081.44 530.768C1080.64 533.216 1079.43 535.344 1077.8 537.152L1078.34 538.912C1078.82 538.4 1079.28 537.888 1079.72 537.376V545.696H1081.41V534.912C1082.05 533.824 1082.56 532.672 1082.96 531.472L1081.44 530.768ZM1089.19 530.784L1087.76 531.584C1088.5 534.048 1089.81 536.048 1091.68 537.616L1092.8 536.272C1091.08 534.848 1089.88 533.024 1089.19 530.784ZM1100.8 545.616C1101.84 545.616 1102.37 545.072 1102.37 544V540.064C1103.59 539.968 1104.71 539.872 1105.73 539.76C1106.09 540.288 1106.42 540.8 1106.71 541.312L1108.04 540.4C1107.33 539.232 1106.31 537.872 1104.98 536.32L1103.75 537.088C1104.1 537.536 1104.45 537.984 1104.79 538.432C1103.22 538.624 1101.38 538.784 1099.3 538.928C1101.12 537.872 1103.28 536.272 1105.76 534.144L1104.23 533.392C1103.52 534.032 1102.85 534.624 1102.2 535.168C1101.14 535.248 1100.07 535.328 1099.01 535.392C1099.86 534.784 1100.68 534.016 1101.44 533.12C1103.78 532.96 1105.8 532.704 1107.51 532.352L1106.69 530.96C1103.49 531.552 1099.6 531.856 1095.03 531.856L1095.51 533.296C1096.85 533.296 1098.13 533.264 1099.38 533.232C1098.55 534.16 1097.86 534.752 1097.3 535.024C1096.95 535.184 1096.58 535.28 1096.18 535.328L1096.52 536.784C1097.89 536.704 1099.22 536.624 1100.47 536.528C1099.12 537.504 1097.89 538.224 1096.79 538.704C1096.36 538.864 1095.88 538.96 1095.35 539.008L1095.81 540.464C1097.57 540.384 1099.19 540.288 1100.69 540.192V543.584C1100.69 543.92 1100.53 544.096 1100.23 544.096C1099.7 544.096 1099.16 544.048 1098.6 543.984L1098.98 545.616H1100.8ZM1104.52 540.736L1103.41 541.808C1105.09 543.072 1106.39 544.256 1107.3 545.344L1108.48 544.16C1107.41 543.024 1106.09 541.888 1104.52 540.736ZM1098 540.848C1096.95 542.016 1095.67 543.04 1094.13 543.92L1095.17 545.28C1096.77 544.32 1098.1 543.184 1099.17 541.888L1098 540.848ZM1115.46 541.664C1113.99 542.368 1112.26 542.944 1110.29 543.376L1110.5 545.04C1112.36 544.592 1114 543.984 1115.46 543.248V541.664ZM1112.58 530.784C1112.04 532.48 1111.4 534.032 1110.66 535.44C1110.44 535.76 1110.2 535.968 1109.94 536.08L1110.36 537.616C1111.09 537.504 1111.83 537.392 1112.53 537.296C1111.83 538.512 1111.25 539.36 1110.8 539.84C1110.61 540.032 1110.36 540.192 1110.05 540.32L1110.5 541.856C1112.05 541.616 1113.7 541.136 1115.46 540.4V538.864C1114.48 539.296 1113.52 539.648 1112.58 539.904C1113.41 538.768 1114.45 537.024 1115.7 534.672L1114.21 534.096C1113.91 534.688 1113.62 535.248 1113.36 535.76C1112.88 535.84 1112.4 535.904 1111.92 535.952C1112.69 534.768 1113.44 533.264 1114.18 531.408L1112.58 530.784ZM1115.91 538.128C1118.23 537.952 1120.37 537.712 1122.34 537.424C1122.56 537.776 1122.77 538.144 1122.96 538.496L1124.26 537.584C1123.7 536.576 1122.9 535.392 1121.86 534.032L1120.58 534.832L1121.44 536.032C1120.26 536.224 1119.06 536.384 1117.84 536.496C1118.29 535.888 1118.8 535.056 1119.38 533.968H1124.24V532.384H1120.77C1120.58 531.776 1120.39 531.216 1120.2 530.736L1118.5 531.024C1118.72 531.44 1118.92 531.904 1119.09 532.384H1115.25V533.968H1117.64C1116.92 535.328 1116.32 536.176 1115.88 536.528C1115.81 536.56 1115.7 536.608 1115.56 536.656L1115.91 538.128ZM1117.04 538.544C1116.98 540.288 1116.77 541.536 1116.42 542.288C1116.05 543.056 1115.43 543.728 1114.53 544.304L1115.6 545.648C1116.69 544.912 1117.46 544.032 1117.92 543.024C1118.34 542.08 1118.58 540.592 1118.68 538.544H1117.04ZM1122.96 545.376C1123.73 545.312 1124.24 545.136 1124.47 544.816C1124.69 544.464 1124.82 543.536 1124.82 542L1123.4 541.488C1123.4 542.224 1123.36 542.816 1123.33 543.248C1123.3 543.648 1123.16 543.872 1122.88 543.904H1122.04C1121.86 543.856 1121.78 543.712 1121.78 543.472V538.352H1120.2V543.808C1120.2 544.848 1120.79 545.376 1121.99 545.376H1122.96Z" fill="#095CAB"/>
<path d="M560.449 533.168C560.081 535.28 559.361 537.2 558.305 538.896L559.185 540.288C559.441 539.936 559.681 539.552 559.905 539.168V545.104H561.441V543.952H564.161V536.304H561.233C561.585 535.312 561.857 534.272 562.049 533.168H564.241V531.6H558.913V533.168H560.449ZM566.657 537.92H568.097V539.184H566.657V537.92ZM569.617 537.92H571.073V539.184H569.617V537.92ZM571.073 536.576H569.617V535.328H571.073V536.576ZM568.097 536.576H566.657V535.328H568.097V536.576ZM564.705 531.36V532.864H568.097V533.904H565.153V540.576H568.001C567.905 541.12 567.729 541.6 567.505 542.048C567.057 541.68 566.657 541.264 566.273 540.816L565.105 541.616C565.553 542.176 566.049 542.688 566.577 543.152C565.953 543.616 565.041 544.016 563.857 544.368L564.705 545.712C566.049 545.312 567.105 544.784 567.873 544.112C569.345 545.04 571.073 545.584 573.041 545.712L573.441 544.192C571.665 544.096 570.113 543.68 568.801 542.944C569.169 542.288 569.409 541.504 569.537 540.576H572.593V533.904H569.617V532.864H573.025V531.36H564.705ZM561.441 542.528V537.776H562.625V542.528H561.441ZM577.825 530.704C577.073 533.168 575.905 535.312 574.337 537.12L574.897 538.912C575.345 538.432 575.777 537.936 576.193 537.424V545.664H577.841V534.992C578.481 533.872 578.993 532.704 579.393 531.456L577.825 530.704ZM580.529 531.92C580.209 533.936 579.585 535.648 578.673 537.04L579.745 538.432C580.305 537.616 580.785 536.704 581.185 535.712H583.473V538.992H579.009V540.608H583.473V545.616H585.153V540.608H589.233V538.992H585.153V535.712H588.625V534.08H585.153V530.928H583.473V534.08H581.729C581.905 533.456 582.049 532.8 582.161 532.128L580.529 531.92ZM597.345 545.616C598.385 545.616 598.913 545.072 598.913 544V540.064C600.129 539.968 601.249 539.872 602.273 539.76C602.625 540.288 602.961 540.8 603.249 541.312L604.577 540.4C603.873 539.232 602.849 537.872 601.521 536.32L600.289 537.088C600.641 537.536 600.993 537.984 601.329 538.432C599.761 538.624 597.921 538.784 595.841 538.928C597.665 537.872 599.825 536.272 602.305 534.144L600.769 533.392C600.065 534.032 599.393 534.624 598.737 535.168C597.681 535.248 596.609 535.328 595.553 535.392C596.401 534.784 597.217 534.016 597.985 533.12C600.321 532.96 602.337 532.704 604.049 532.352L603.233 530.96C600.033 531.552 596.145 531.856 591.569 531.856L592.049 533.296C593.393 533.296 594.673 533.264 595.921 533.232C595.089 534.16 594.401 534.752 593.841 535.024C593.489 535.184 593.121 535.28 592.721 535.328L593.057 536.784C594.433 536.704 595.761 536.624 597.009 536.528C595.665 537.504 594.433 538.224 593.329 538.704C592.897 538.864 592.417 538.96 591.889 539.008L592.353 540.464C594.113 540.384 595.729 540.288 597.233 540.192V543.584C597.233 543.92 597.073 544.096 596.769 544.096C596.241 544.096 595.697 544.048 595.137 543.984L595.521 545.616H597.345ZM601.057 540.736L599.953 541.808C601.633 543.072 602.929 544.256 603.841 545.344L605.025 544.16C603.953 543.024 602.625 541.888 601.057 540.736ZM594.545 540.848C593.489 542.016 592.209 543.04 590.673 543.92L591.713 545.28C593.313 544.32 594.641 543.184 595.713 541.888L594.545 540.848ZM612.001 541.664C610.529 542.368 608.801 542.944 606.833 543.376L607.041 545.04C608.897 544.592 610.545 543.984 612.001 543.248V541.664ZM609.121 530.784C608.577 532.48 607.937 534.032 607.201 535.44C606.977 535.76 606.737 535.968 606.481 536.08L606.897 537.616C607.633 537.504 608.369 537.392 609.073 537.296C608.369 538.512 607.793 539.36 607.345 539.84C607.153 540.032 606.897 540.192 606.593 540.32L607.041 541.856C608.593 541.616 610.241 541.136 612.001 540.4V538.864C611.025 539.296 610.065 539.648 609.121 539.904C609.953 538.768 610.993 537.024 612.241 534.672L610.753 534.096C610.449 534.688 610.161 535.248 609.905 535.76C609.425 535.84 608.945 535.904 608.465 535.952C609.233 534.768 609.985 533.264 610.721 531.408L609.121 530.784ZM612.449 538.128C614.769 537.952 616.913 537.712 618.881 537.424C619.105 537.776 619.313 538.144 619.505 538.496L620.801 537.584C620.241 536.576 619.441 535.392 618.401 534.032L617.121 534.832L617.985 536.032C616.801 536.224 615.601 536.384 614.385 536.496C614.833 535.888 615.345 535.056 615.921 533.968H620.785V532.384H617.313C617.121 531.776 616.929 531.216 616.737 530.736L615.041 531.024C615.265 531.44 615.457 531.904 615.633 532.384H611.793V533.968H614.177C613.457 535.328 612.865 536.176 612.417 536.528C612.353 536.56 612.241 536.608 612.097 536.656L612.449 538.128ZM613.585 538.544C613.521 540.288 613.313 541.536 612.961 542.288C612.593 543.056 611.969 543.728 611.073 544.304L612.145 545.648C613.233 544.912 614.001 544.032 614.465 543.024C614.881 542.08 615.121 540.592 615.217 538.544H613.585ZM619.505 545.376C620.273 545.312 620.785 545.136 621.009 544.816C621.233 544.464 621.361 543.536 621.361 542L619.937 541.488C619.937 542.224 619.905 542.816 619.873 543.248C619.841 543.648 619.697 543.872 619.425 543.904H618.577C618.401 543.856 618.321 543.712 618.321 543.472V538.352H616.737V543.808C616.737 544.848 617.329 545.376 618.529 545.376H619.505Z" fill="#095CAB"/>
<path d="M811.843 530.992L810.707 532.064C811.859 532.992 812.755 533.872 813.379 534.672L814.547 533.52C813.811 532.688 812.899 531.84 811.843 530.992ZM820.963 545.408H824.627L825.027 543.76C824.595 543.792 823.971 543.824 823.155 543.856C822.323 543.856 821.523 543.872 820.723 543.872C819.475 543.872 818.403 543.856 817.475 543.84C816.531 543.808 815.827 543.68 815.363 543.44C814.979 543.232 814.611 542.912 814.243 542.496L814.067 542.32V536.24H810.403V537.776H812.515V542.16C811.875 542.512 811.171 543.328 810.371 544.608L811.603 545.744C812.403 544.304 812.947 543.6 813.267 543.6C813.443 543.6 813.635 543.728 813.859 544C814.339 544.544 814.899 544.912 815.539 545.104C816.211 545.264 817.059 545.36 818.099 545.376C819.123 545.392 820.083 545.408 820.963 545.408ZM818.131 532.688L817.283 533.52C817.891 533.856 818.435 534.192 818.931 534.512H815.379V543.2H816.947V540.592H819.027V543.184H820.563V540.592H822.707V541.264C822.707 541.6 822.531 541.776 822.179 541.776L821.075 541.728L821.443 543.104H822.643C823.731 543.104 824.275 542.592 824.275 541.6V534.512H821.043L821.011 534.48C822.067 533.92 823.043 533.248 823.955 532.48V531.312H815.107V532.688H818.131ZM820.003 533.712C819.555 533.376 819.043 533.04 818.499 532.688H821.699C821.171 533.056 820.611 533.392 820.003 533.712ZM816.947 538.24H819.027V539.248H816.947V538.24ZM820.563 538.24H822.707V539.248H820.563V538.24ZM822.707 536.896H820.563V535.888H822.707V536.896ZM819.027 536.896H816.947V535.888H819.027V536.896ZM830.979 536.944V538.56H833.203V545.68H834.819V538.56H836.787V536.944H834.819V533.072H837.235V536.608C837.235 540.528 837.635 543.104 838.435 544.336C838.899 545.056 839.475 545.424 840.163 545.44C840.419 545.44 840.627 545.28 840.803 544.976C841.027 544.528 841.187 543.536 841.251 541.968L839.955 541.344C839.955 541.888 839.939 542.368 839.907 542.816C839.875 543.264 839.827 543.504 839.795 543.504C839.667 543.504 839.539 543.248 839.395 542.768C839.043 541.648 838.883 539.584 838.883 536.608V531.472H831.267V533.072H833.203V536.944H830.979ZM828.387 530.96L827.203 532.112C828.291 532.944 829.139 533.728 829.731 534.464L830.883 533.296C830.195 532.528 829.363 531.744 828.387 530.96ZM826.211 535.584V537.184H828.275V542.8C828.275 543.168 828.131 543.472 827.859 543.728L828.499 545.232C829.603 544.48 830.643 543.632 831.635 542.688L831.187 540.928C830.739 541.376 830.307 541.792 829.907 542.16V535.584H826.211ZM849.075 545.616C850.115 545.616 850.643 545.072 850.643 544V540.064C851.859 539.968 852.979 539.872 854.003 539.76C854.355 540.288 854.691 540.8 854.979 541.312L856.307 540.4C855.603 539.232 854.579 537.872 853.251 536.32L852.019 537.088C852.371 537.536 852.723 537.984 853.059 538.432C851.491 538.624 849.651 538.784 847.571 538.928C849.395 537.872 851.555 536.272 854.035 534.144L852.499 533.392C851.795 534.032 851.123 534.624 850.467 535.168C849.411 535.248 848.339 535.328 847.283 535.392C848.131 534.784 848.947 534.016 849.715 533.12C852.051 532.96 854.067 532.704 855.779 532.352L854.963 530.96C851.763 531.552 847.875 531.856 843.299 531.856L843.779 533.296C845.123 533.296 846.403 533.264 847.651 533.232C846.819 534.16 846.131 534.752 845.571 535.024C845.219 535.184 844.851 535.28 844.451 535.328L844.787 536.784C846.163 536.704 847.491 536.624 848.739 536.528C847.395 537.504 846.163 538.224 845.059 538.704C844.627 538.864 844.147 538.96 843.619 539.008L844.083 540.464C845.843 540.384 847.459 540.288 848.963 540.192V543.584C848.963 543.92 848.803 544.096 848.499 544.096C847.971 544.096 847.427 544.048 846.867 543.984L847.251 545.616H849.075ZM852.787 540.736L851.683 541.808C853.363 543.072 854.659 544.256 855.571 545.344L856.755 544.16C855.683 543.024 854.355 541.888 852.787 540.736ZM846.275 540.848C845.219 542.016 843.939 543.04 842.403 543.92L843.443 545.28C845.043 544.32 846.371 543.184 847.443 541.888L846.275 540.848ZM863.731 541.664C862.259 542.368 860.531 542.944 858.563 543.376L858.771 545.04C860.627 544.592 862.275 543.984 863.731 543.248V541.664ZM860.851 530.784C860.307 532.48 859.667 534.032 858.931 535.44C858.707 535.76 858.467 535.968 858.211 536.08L858.627 537.616C859.363 537.504 860.099 537.392 860.803 537.296C860.099 538.512 859.523 539.36 859.075 539.84C858.883 540.032 858.627 540.192 858.323 540.32L858.771 541.856C860.323 541.616 861.971 541.136 863.731 540.4V538.864C862.755 539.296 861.795 539.648 860.851 539.904C861.683 538.768 862.723 537.024 863.971 534.672L862.483 534.096C862.179 534.688 861.891 535.248 861.635 535.76C861.155 535.84 860.675 535.904 860.195 535.952C860.963 534.768 861.715 533.264 862.451 531.408L860.851 530.784ZM864.179 538.128C866.499 537.952 868.643 537.712 870.611 537.424C870.835 537.776 871.043 538.144 871.235 538.496L872.531 537.584C871.971 536.576 871.171 535.392 870.131 534.032L868.851 534.832L869.715 536.032C868.531 536.224 867.331 536.384 866.115 536.496C866.563 535.888 867.075 535.056 867.651 533.968H872.515V532.384H869.043C868.851 531.776 868.659 531.216 868.467 530.736L866.771 531.024C866.995 531.44 867.187 531.904 867.363 532.384H863.523V533.968H865.907C865.187 535.328 864.595 536.176 864.147 536.528C864.083 536.56 863.971 536.608 863.827 536.656L864.179 538.128ZM865.315 538.544C865.251 540.288 865.043 541.536 864.691 542.288C864.323 543.056 863.699 543.728 862.803 544.304L863.875 545.648C864.963 544.912 865.731 544.032 866.195 543.024C866.611 542.08 866.851 540.592 866.947 538.544H865.315ZM871.235 545.376C872.003 545.312 872.515 545.136 872.739 544.816C872.963 544.464 873.091 543.536 873.091 542L871.667 541.488C871.667 542.224 871.635 542.816 871.603 543.248C871.571 543.648 871.427 543.872 871.155 543.904H870.307C870.131 543.856 870.051 543.712 870.051 543.472V538.352H868.467V543.808C868.467 544.848 869.059 545.376 870.259 545.376H871.235Z" fill="#095CAB"/>
<line x1="480.148" y1="518.768" x2="480.148" y2="559.589" stroke="#BDEAFF"/>
<line x1="731.5" y1="518" x2="731.5" y2="558.821" stroke="#BDEAFF"/>
<line x1="983.5" y1="518" x2="983.5" y2="558.821" stroke="#BDEAFF"/>
</svg>
